<?xml version="1.0" encoding="UTF-8" standalone="no"?>
<svg
   xmlns:dc="http://purl.org/dc/elements/1.1/"
   xmlns:cc="http://creativecommons.org/ns#"
   xmlns:rdf="http://www.w3.org/1999/02/22-rdf-syntax-ns#"
   xmlns:svg="http://www.w3.org/2000/svg"
   xmlns="http://www.w3.org/2000/svg"
   xmlns:xlink="http://www.w3.org/1999/xlink"
   xmlns:sodipodi="http://sodipodi.sourceforge.net/DTD/sodipodi-0.dtd"
   xmlns:inkscape="http://www.inkscape.org/namespaces/inkscape"
   id="e96d43fc-c2ba-4d44-92c2-c0adf9da4e64"
   data-name="Layer 1"
   width="862.84399"
   height="862.84399"
   viewBox="0 0 862.84402 862.84399"
   version="1.1"
   sodipodi:docname="organize-project.svg"
   inkscape:version="1.0 (4035a4f, 2020-05-01)">
  <metadata
     id="metadata1047">
    <rdf:RDF>
      <cc:Work
         rdf:about="">
        <dc:format>image/svg+xml</dc:format>
        <dc:type
           rdf:resource="http://purl.org/dc/dcmitype/StillImage" />
        <dc:title>Organizing projects</dc:title>
      </cc:Work>
    </rdf:RDF>
  </metadata>
  <sodipodi:namedview
     fit-margin-right="0"
     fit-margin-left="0"
     fit-margin-bottom="144.422"
     fit-margin-top="144.422"
     inkscape:document-rotation="0"
     pagecolor="#ffffff"
     bordercolor="#666666"
     borderopacity="1"
     objecttolerance="10"
     gridtolerance="10"
     guidetolerance="10"
     inkscape:pageopacity="0"
     inkscape:pageshadow="2"
     inkscape:window-width="1280"
     inkscape:window-height="747"
     id="namedview1045"
     showgrid="false"
     inkscape:zoom="0.8251782"
     inkscape:cx="431.42197"
     inkscape:cy="-109.06731"
     inkscape:window-x="0"
     inkscape:window-y="25"
     inkscape:window-maximized="0"
     inkscape:current-layer="e96d43fc-c2ba-4d44-92c2-c0adf9da4e64" />
  <defs
     id="defs848">
    <linearGradient
       id="bfa0f4d2-dcfa-4ef6-86fd-560f9baa573d"
       x1="491.81418"
       y1="649.08954"
       x2="491.81418"
       y2="275.77695"
       gradientUnits="userSpaceOnUse">
      <stop
         offset="0"
         stop-color="gray"
         stop-opacity="0.25"
         id="stop833" />
      <stop
         offset="0.53514"
         stop-color="gray"
         stop-opacity="0.12"
         id="stop835" />
      <stop
         offset="1"
         stop-color="gray"
         stop-opacity="0.1"
         id="stop837" />
    </linearGradient>
    <linearGradient
       id="a8a26417-897b-4824-ba24-124e6df23ee1"
       x1="743.55548"
       y1="708.81482"
       x2="743.55548"
       y2="647.80225"
       xlink:href="#bfa0f4d2-dcfa-4ef6-86fd-560f9baa573d" />
    <linearGradient
       id="ab5b96a4-0813-40c0-b204-ab4c684c1095"
       x1="322.8031"
       y1="543.16211"
       x2="322.8031"
       y2="385.06088"
       xlink:href="#bfa0f4d2-dcfa-4ef6-86fd-560f9baa573d" />
    <linearGradient
       id="abf8dd20-0cff-4ae4-8a34-4657bd98ff8c"
       x1="519.12134"
       y1="123.67806"
       x2="519.12134"
       y2="29.315821"
       xlink:href="#bfa0f4d2-dcfa-4ef6-86fd-560f9baa573d" />
    <linearGradient
       id="be1ebc98-5a27-4b7e-a024-d61eab9032a4"
       x1="534.55676"
       y1="145.48363"
       x2="534.55676"
       y2="51.121391"
       xlink:href="#bfa0f4d2-dcfa-4ef6-86fd-560f9baa573d" />
    <linearGradient
       gradientTransform="translate(0,144.422)"
       id="ef1bc669-8f5e-47d2-bcab-fb6965780cb0"
       x1="656.12982"
       y1="119.51835"
       x2="656.12982"
       y2="65.396843"
       xlink:href="#bfa0f4d2-dcfa-4ef6-86fd-560f9baa573d" />
    <linearGradient
       id="fdab1853-eb02-4945-888d-7e18210c292d"
       x1="771.51392"
       y1="162.36456"
       x2="771.51392"
       y2="18.04051"
       xlink:href="#bfa0f4d2-dcfa-4ef6-86fd-560f9baa573d" />
    <linearGradient
       id="abb561b1-6277-47b7-aebb-e0bd47f7b9cd"
       x1="674.91931"
       y1="262.90338"
       x2="674.91931"
       y2="202.95569"
       xlink:href="#bfa0f4d2-dcfa-4ef6-86fd-560f9baa573d" />
    <linearGradient
       id="bfa125eb-3859-436e-b673-157c8f5e610a"
       x1="637.9585"
       y1="255.27193"
       x2="637.9585"
       y2="180.96835"
       xlink:href="#bfa0f4d2-dcfa-4ef6-86fd-560f9baa573d" />
    <linearGradient
       gradientTransform="translate(-168.57802,-18.578)"
       y2="275.77695"
       x2="491.81418"
       y1="649.08954"
       x1="491.81418"
       gradientUnits="userSpaceOnUse"
       id="linearGradient123"
       xlink:href="#bfa0f4d2-dcfa-4ef6-86fd-560f9baa573d"
       inkscape:collect="always" />
  </defs>
  <title
     id="title850">Organizing projects</title>
  <path
     d="m 105.42198,650.04424 c 0,18.88026 -11.22431,25.47337 -25.06914,25.47337 -0.32233,0 -0.64293,-0.003 -0.96178,-0.0122 -0.64119,-0.0139 -1.27715,-0.0418 -1.9044,-0.0871 -12.49625,-0.88338 -22.20469,-7.81624 -22.20469,-25.37405 0,-18.16937 23.21526,-41.09715 24.96633,-42.79944 l 0.003,-0.002 c 0.0662,-0.0662 0.101,-0.0993 0.101,-0.0993 0,0 25.06919,24.01849 25.06919,42.90049 z"
     fill="#3f3d56"
     id="path852" />
  <path
     d="m 79.4381,672.62877 9.17006,-12.8116 -9.19271,14.21769 -0.0244,1.47055 c -0.64119,-0.0139 -1.27715,-0.0418 -1.9044,-0.0871 l 0.98792,-18.889 -0.007,-0.14637 0.0174,-0.0279 0.0923,-1.78419 -9.21537,-14.25424 9.24324,12.91614 0.0226,0.37811 0.74748,-14.27172 -7.88937,-14.72815 7.98525,12.22094 0.7771,-29.58709 0.003,-0.101 v 0.0993 l -0.12894,23.332 7.85283,-9.25022 -7.88597,11.25907 -0.20733,12.77851 7.33361,-12.26276 -7.365,14.14451 -0.115,7.10362 10.64584,-17.07 -10.68588,19.54938 z"
     fill="#f2f2f2"
     id="path854" />
  <path
     style="fill:url(#linearGradient123)"
     d="m 423.93517,540.87047 c -6.69828,-24.31322 -43.88872,-42.23288 -72.90771,-46.85833 v -11.679 q 0.80456,-0.29971 1.60018,-0.61741 a 25.80449,25.80449 0 0 0 -1.39392,-6.844 70.43338,70.43338 0 0 0 30.85826,-24.40689 79.35794,79.35794 0 0 0 -15.66931,-122.34034 15.57,15.57 0 0 0 -6.96213,-28.68268 30.3914,30.3914 0 0 0 -47.31236,-35.30576 30.38171,30.38171 0 0 1 44.65292,26.82984 c 0,0.26671 -0.0158,0.52952 -0.0226,0.7946 a 30.38589,30.38589 0 1 0 -58.90437,11.367 15.194,15.194 0 0 0 -10.05686,22.25626 79.36055,79.36055 0 0 0 -19.353,126.21911 70.44524,70.44524 0 0 0 28.62208,22.68125 v 19.467 c -29.3263,4.18973 -67.94606,22.44217 -74.69415,47.35455 -5.88056,21.70968 -12.15778,45.55164 -15.281,59.54974 26.7709,18.81079 82.94473,29.85609 118.14907,29.85609 33.44821,0 88.11815,-9.9692 114.10088,-27.09764 -2.81434,-15.38086 -9.28959,-40.26968 -15.42598,-62.54339 z M 370.30785,316.29114 c 0,0.27668 -0.0114,0.55056 -0.026,0.82359 a 15.19713,15.19713 0 0 0 -12.61858,-14.11309 q 0.44136,-0.74742 0.84172,-1.5208 a 15.19746,15.19746 0 0 1 11.80286,14.8103 z"
     fill="url(#bfa0f4d2-dcfa-4ef6-86fd-560f9baa573d)"
     id="path856" />
  <path
     d="m 325.20258,625.19486 c 32.49549,0 85.60824,-9.68525 110.85087,-26.32582 -2.73418,-14.94272 -9.025,-39.12268 -14.98658,-60.76192 -7.59245,-27.55885 -55.51136,-46.66462 -84.097,-46.66462 h -27.54613 c -28.67418,0 -76.66223,19.21632 -84.15911,46.89313 -5.71305,21.0913 -11.81148,44.25416 -14.84578,57.85354 26.00839,18.275 80.58213,29.00569 114.78373,29.00569 z"
     fill="#5290a1"
     id="path858"
     style="fill:#059eb2;fill-opacity:1" />
  <circle
     cx="324.68011"
     cy="397.01675"
     r="77.092102"
     fill="#f55f44"
     id="circle860"
     style="fill:#2f2e41;fill-opacity:1" />
  <path
     d="m 303.86624,450.603 h 40.33461 a 6.035,6.035 0 0 1 6.035,6.035 v 41.24161 a 24.77978,24.77978 0 0 1 -24.77978,24.77978 H 322.611 A 24.77978,24.77978 0 0 1 297.83122,497.87961 V 456.638 a 6.035,6.035 0 0 1 6.03502,-6.035 z"
     fill="#fda57d"
     id="path862"
     style="fill:#ffccaa" />
  <path
     d="m 326.45443,485.51927 a 67.98146,67.98146 0 0 0 25.336,-4.88195 25.10935,25.10935 0 0 0 -25.04537,-23.48378 h -2.14778 a 25.1215,25.1215 0 0 0 -25.01388,22.85987 67.96813,67.96813 0 0 0 26.87103,5.50586 z"
     opacity="0.05"
     id="path864" />
  <circle
     cx="324.81674"
     cy="410.76569"
     r="68.203018"
     fill="#fda57d"
     id="circle866"
     style="fill:#ffccaa" />
  <circle
     cx="301.71652"
     cy="321.56491"
     r="14.76232"
     fill="#f55f44"
     id="circle868"
     style="fill:#2f2e41;fill-opacity:1" />
  <circle
     cx="354.20477"
     cy="321.56491"
     r="14.76232"
     fill="#f55f44"
     id="circle870"
     style="fill:#2f2e41;fill-opacity:1" />
  <circle
     cx="326.3204"
     cy="296.96106"
     r="29.52463"
     fill="#f55f44"
     id="circle872"
     style="fill:#2f2e41;fill-opacity:1" />
  <path
     d="m 357.48528,303.52208 a 14.69253,14.69253 0 0 0 -8.23833,2.51185 14.75544,14.75544 0 0 1 13.19614,26.1412 14.754,14.754 0 0 0 -4.95781,-28.65305 z"
     fill="#f55f44"
     id="path874"
     style="fill:#2f2e41;fill-opacity:1" />
  <path
     d="m 331.24116,262.51565 a 29.40313,29.40313 0 0 0 -18.77716,6.73953 29.52238,29.52238 0 0 1 32.63315,48.85092 29.52118,29.52118 0 0 0 -13.856,-55.59045 z"
     fill="#f55f44"
     id="path876"
     style="fill:#2f2e41;fill-opacity:1" />
  <path
     d="m 275.47241,349.44929 c 0,0 8.20128,54.1285 111.5375,24.60386 L 336.16198,329.7662 Z"
     fill="#f55f44"
     id="path878"
     style="fill:#2f2e41;fill-opacity:1" />
  <rect
     x="45.227428"
     y="659.43408"
     width="71.054962"
     height="30.236151"
     rx="14.2973"
     fill="#5290a1"
     id="rect880"
     style="fill:#059eb2;fill-opacity:1" />
  <g
     transform="translate(0,144.422)"
     opacity="0.7"
     id="g884">
    <path
       style="fill:url(#a8a26417-897b-4824-ba24-124e6df23ee1)"
       d="m 763.71145,658.69733 v -10.89511 h -54.47554 v 50.38988 a 10.62275,10.62275 0 0 0 10.62273,10.62273 h 33.23008 a 10.62275,10.62275 0 0 0 10.62273,-10.62273 v -11.16749 a 14.16364,14.16364 0 1 0 0,-28.32728 z m 0,22.87973 v -17.43217 a 8.71609,8.71609 0 0 1 0,17.43217 z"
       transform="translate(-168.57802,-163)"
       fill="url(#a8a26417-897b-4824-ba24-124e6df23ee1)"
       id="path882" />
  </g>
  <path
     d="m 593.38074,641.82465 a 12.932,12.932 0 1 0 12.932,12.932 12.932,12.932 0 0 0 -12.932,-12.932 z m 0,20.89019 a 7.95817,7.95817 0 1 1 7.95816,-7.95817 7.95818,7.95818 0 0 1 -7.95816,7.95817 z"
     fill="#5290a1"
     id="path886" />
  <path
     d="m 593.38074,641.82465 a 12.932,12.932 0 1 0 12.932,12.932 12.932,12.932 0 0 0 -12.932,-12.932 z m 0,20.89019 a 7.95817,7.95817 0 1 1 7.95816,-7.95817 7.95818,7.95818 0 0 1 -7.95816,7.95817 z"
     opacity="0.1"
     id="path888"
     style="fill:#059eb2;fill-opacity:1" />
  <path
     d="m 543.6422,631.87695 h 49.73854 v 45.95716 a 9.75,9.75 0 0 1 -9.75,9.75 H 553.3922 a 9.75,9.75 0 0 1 -9.75,-9.75 z"
     fill="#5290a1"
     id="path890"
     style="fill:#059eb2;fill-opacity:1" />
  <rect
     x="0"
     y="687.58411"
     width="645.6062"
     height="21.88496"
     fill="#e0e0e0"
     id="rect892"
     style="fill:#ebecf0;fill-opacity:1" />
  <g
     transform="translate(0,144.422)"
     opacity="0.7"
     id="g896">
    <rect
       style="fill:url(#ab5b96a4-0813-40c0-b204-ab4c684c1095)"
       x="185.52473"
       y="385.06088"
       width="274.55673"
       height="158.10123"
       rx="14.5"
       fill="url(#ab5b96a4-0813-40c0-b204-ab4c684c1095)"
       id="rect894" />
  </g>
  <rect
     x="190.4986"
     y="532.3999"
     width="264.60901"
     height="155.18423"
     rx="26.835051"
     fill="#535461"
     id="rect898" />
  <circle
     cx="322.8031"
     cy="609.992"
     r="8.95294"
     fill="#ffffff"
     id="circle900" />
  <rect
     x="27.35619"
     y="709.46906"
     width="590.8938"
     height="8.95294"
     fill="#e0e0e0"
     id="rect902" />
  <rect
     x="27.35619"
     y="709.46906"
     width="590.8938"
     height="2.9843099"
     opacity="0.1"
     id="rect904" />
  <path
     d="m 584.4278,631.877 v 46.00814 a 9.699,9.699 0 0 1 -9.699,9.699 h 4.97385 a 9.699,9.699 0 0 0 9.699,-9.699 V 631.877 Z"
     opacity="0.1"
     id="path906"
     style="fill:#059eb2;fill-opacity:1" />
  <path
     d="m 553.45744,594.79521 a 2.90423,2.90423 0 0 0 -2.1965,1.11521 c -0.65244,1.18276 0.52985,2.51633 1.60877,3.329 1.99324,1.50147 4.09411,2.97632 5.449,5.072 1.35489,2.09568 1.7805,5.02022 0.29944,7.02867 -1.93388,2.62249 -6.5477,3.18662 -6.99422,6.4143 -0.28666,2.07216 1.50475,3.8403 3.31992,4.88008 4.48025,2.5664 10.25592,3.25107 13.50114,7.267 1.34247,-2.76054 4.34521,-4.35628 7.33829,-5.03772 2.99308,-0.68144 6.10287,-0.63057 9.13753,-1.09285 a 3.15939,3.15939 0 0 0 2.52119,-1.33731 c 0.8483,-1.72159 -1.56943,-3.78639 -0.735,-5.51473 0.63512,-1.31546 2.50084,-1.2133 3.86329,-1.74011 2.21844,-0.85777 3.13325,-3.71287 2.50361,-6.00651 -0.62964,-2.29364 -2.40819,-4.08614 -4.27841,-5.55575 -5.0403,-3.96061 -11.10094,-6.28982 -17.2309,-7.96517 -2.851,-0.7792 -6.19776,-2.00112 -9.159,-2.11925 -2.85861,-0.11407 -6.1188,0.77911 -8.94815,1.26314 z"
     fill="#eeeeee"
     id="path908" />
  <rect
     y="144.422"
     x="428.36844"
     width="434.47552"
     height="297.66833"
     fill="#535461"
     opacity="0.1"
     id="rect910"
     style="opacity:1;fill:#ebecf0;fill-opacity:1" />
  <g
     transform="translate(0,144.422)"
     opacity="0.5"
     id="g914">
    <rect
       style="fill:url(#abf8dd20-0cff-4ae4-8a34-4657bd98ff8c)"
       x="467.98343"
       y="29.315821"
       width="102.27585"
       height="94.362244"
       rx="4.5"
       fill="url(#abf8dd20-0cff-4ae4-8a34-4657bd98ff8c)"
       id="rect912" />
  </g>
  <rect
     x="469.23181"
     y="174.46944"
     width="99.916573"
     height="92.07386"
     rx="4.5"
     fill="#f5f5f5"
     id="rect916" />
  <rect
     x="476.93201"
     y="189.6348"
     width="16.850389"
     height="15.16536"
     rx="4.5"
     fill="#5290a1"
     id="rect918"
     style="fill:#02549a;fill-opacity:1" />
  <rect
     x="498.83752"
     y="189.6348"
     width="66.985489"
     height="1.68504"
     rx="0.79677999"
     fill="#e0e0e0"
     id="rect920" />
  <rect
     x="498.83752"
     y="194.6899"
     width="66.985489"
     height="1.68504"
     rx="0.79677999"
     fill="#e0e0e0"
     id="rect922" />
  <rect
     x="475.24698"
     y="213.03812"
     width="90.576042"
     height="1.68504"
     rx="0.79677999"
     fill="#e0e0e0"
     id="rect924" />
  <rect
     x="475.24698"
     y="218.09323"
     width="90.576042"
     height="1.68504"
     rx="0.79677999"
     fill="#e0e0e0"
     id="rect926" />
  <rect
     x="475.24698"
     y="224.83339"
     width="90.576042"
     height="1.68504"
     rx="0.79677999"
     fill="#e0e0e0"
     id="rect928" />
  <rect
     x="475.24698"
     y="229.8885"
     width="52.236221"
     height="1.68504"
     rx="0.79677999"
     fill="#e0e0e0"
     id="rect930" />
  <rect
     x="475.24698"
     y="236.61234"
     width="90.576042"
     height="1.68504"
     rx="0.79677999"
     fill="#e0e0e0"
     id="rect932" />
  <rect
     x="475.24698"
     y="241.66745"
     width="90.576042"
     height="1.68504"
     rx="0.79677999"
     fill="#e0e0e0"
     id="rect934" />
  <rect
     x="475.24698"
     y="248.40761"
     width="90.576042"
     height="1.68504"
     rx="0.79677999"
     fill="#e0e0e0"
     id="rect936" />
  <rect
     x="475.24698"
     y="253.46274"
     width="52.236221"
     height="1.68504"
     rx="0.79677999"
     fill="#e0e0e0"
     id="rect938" />
  <g
     transform="translate(0,144.422)"
     opacity="0.5"
     id="g942">
    <rect
       style="fill:url(#be1ebc98-5a27-4b7e-a024-d61eab9032a4)"
       x="483.41882"
       y="51.121391"
       width="102.27585"
       height="94.362244"
       rx="4.5"
       fill="url(#be1ebc98-5a27-4b7e-a024-d61eab9032a4)"
       id="rect940" />
  </g>
  <rect
     x="484.66721"
     y="196.27499"
     width="99.916573"
     height="92.07386"
     rx="4.5"
     fill="#ffffff"
     id="rect944" />
  <rect
     x="492.3674"
     y="211.44035"
     width="16.850389"
     height="15.16536"
     rx="4.5"
     fill="#5290a1"
     id="rect946"
     style="fill:#02549a;fill-opacity:1" />
  <rect
     x="514.27295"
     y="211.44035"
     width="66.985489"
     height="1.68504"
     rx="0.79677999"
     fill="#e0e0e0"
     id="rect948" />
  <rect
     x="514.27295"
     y="216.49547"
     width="66.985489"
     height="1.68504"
     rx="0.79677999"
     fill="#e0e0e0"
     id="rect950" />
  <rect
     x="490.68237"
     y="234.84367"
     width="90.576042"
     height="1.68504"
     rx="0.79677999"
     fill="#e0e0e0"
     id="rect952" />
  <rect
     x="490.68237"
     y="239.8988"
     width="90.576042"
     height="1.68504"
     rx="0.79677999"
     fill="#e0e0e0"
     id="rect954" />
  <rect
     x="490.68237"
     y="246.63896"
     width="90.576042"
     height="1.68504"
     rx="0.79677999"
     fill="#e0e0e0"
     id="rect956" />
  <rect
     x="490.68237"
     y="251.69408"
     width="52.236221"
     height="1.68504"
     rx="0.79677999"
     fill="#e0e0e0"
     id="rect958" />
  <rect
     x="490.68237"
     y="258.41791"
     width="90.576042"
     height="1.68504"
     rx="0.79677999"
     fill="#e0e0e0"
     id="rect960" />
  <rect
     x="490.68237"
     y="263.47302"
     width="90.576042"
     height="1.68504"
     rx="0.79677999"
     fill="#e0e0e0"
     id="rect962" />
  <rect
     x="490.68237"
     y="270.2132"
     width="90.576042"
     height="1.68504"
     rx="0.79677999"
     fill="#e0e0e0"
     id="rect964" />
  <rect
     x="490.68237"
     y="275.26831"
     width="52.236221"
     height="1.68504"
     rx="0.79677999"
     fill="#e0e0e0"
     id="rect966" />
  <rect
     style="fill:url(#ef1bc669-8f5e-47d2-bcab-fb6965780cb0)"
     x="627.96454"
     y="209.81885"
     width="56.330559"
     height="54.121521"
     fill="url(#ef1bc669-8f5e-47d2-bcab-fb6965780cb0)"
     id="rect968" />
  <rect
     x="628.84814"
     y="211.14426"
     width="54.563332"
     height="51.69157"
     fill="#f5f5f5"
     id="rect970" />
  <g
     transform="translate(0,144.422)"
     opacity="0.6"
     id="g974"
     style="opacity:1;fill:#02549a;fill-opacity:1">
    <rect
       x="646.74139"
       y="97.42794"
       width="19.660469"
       height="2.6508501"
       fill="#5290a1"
       id="rect972"
       style="fill:#02549a;fill-opacity:1" />
  </g>
  <rect
     x="639.34113"
     y="246.70982"
     width="33.577431"
     height="2.6508501"
     fill="#bdbdbd"
     id="rect976" />
  <g
     transform="translate(0,144.422)"
     opacity="0.5"
     id="g980">
    <rect
       style="fill:url(#fdab1853-eb02-4945-888d-7e18210c292d)"
       x="710.09631"
       y="18.04051"
       width="122.83516"
       height="144.32405"
       fill="url(#fdab1853-eb02-4945-888d-7e18210c292d)"
       id="rect978" />
  </g>
  <rect
     x="713.8714"
     y="164.78563"
     width="116.44657"
     height="138.80663"
     fill="#ffffff"
     id="rect982" />
  <rect
     x="731.2948"
     y="225.68564"
     width="81.890099"
     height="3.48469"
     fill="#e0e0e0"
     id="rect984" />
  <rect
     x="731.2948"
     y="248.62646"
     width="81.890099"
     height="3.48469"
     fill="#e0e0e0"
     id="rect986" />
  <rect
     x="731.2948"
     y="254.72467"
     width="81.890099"
     height="3.48469"
     fill="#e0e0e0"
     id="rect988" />
  <rect
     x="731.2948"
     y="242.52827"
     width="34.556461"
     height="3.48469"
     fill="#e0e0e0"
     id="rect990" />
  <rect
     x="787.34021"
     y="242.52827"
     width="25.844749"
     height="3.48469"
     fill="#3ad29f"
     opacity="0.6"
     id="rect992"
     style="opacity:1;fill:#02549a;fill-opacity:1" />
  <rect
     x="760.04346"
     y="268.9538"
     width="25.844749"
     height="3.48469"
     fill="#5290a1"
     id="rect994"
     style="fill:#02549a;fill-opacity:1" />
  <g
     transform="translate(0,144.422)"
     opacity="0.5"
     id="g998">
    <rect
       style="fill:url(#abb561b1-6277-47b7-aebb-e0bd47f7b9cd)"
       x="638.42633"
       y="202.95569"
       width="72.985947"
       height="59.947681"
       fill="url(#abb561b1-6277-47b7-aebb-e0bd47f7b9cd)"
       id="rect996" />
  </g>
  <rect
     x="639.27667"
     y="348.51147"
     width="71.143578"
     height="57.82188"
     fill="#f2f2f2"
     id="rect1000" />
  <rect
     x="639.27667"
     y="348.51147"
     width="71.143578"
     height="12.89655"
     fill="#5290a1"
     id="rect1002" />
  <rect
     x="639.27667"
     y="348.51147"
     width="71.143578"
     height="12.89655"
     opacity="0.1"
     id="rect1004"
     style="opacity:1;fill:#02549a;fill-opacity:1" />
  <rect
     x="644.9455"
     y="366.08478"
     width="59.805962"
     height="7.5111799"
     fill="#e0e0e0"
     id="rect1006" />
  <rect
     x="644.9455"
     y="379.26477"
     width="43.649849"
     height="2.5509701"
     fill="#e0e0e0"
     id="rect1008" />
  <rect
     x="644.9455"
     y="383.65808"
     width="28.344061"
     height="2.5509701"
     fill="#e0e0e0"
     id="rect1010" />
  <rect
     x="644.9455"
     y="388.05142"
     width="37.414162"
     height="2.5509701"
     fill="#e0e0e0"
     id="rect1012" />
  <rect
     x="644.9455"
     y="392.44476"
     width="43.649849"
     height="2.5509701"
     fill="#e0e0e0"
     id="rect1014" />
  <rect
     x="644.9455"
     y="396.83807"
     width="14.59719"
     height="2.5509701"
     fill="#e0e0e0"
     id="rect1016" />
  <g
     transform="translate(0,144.422)"
     opacity="0.5"
     id="g1020">
    <rect
       style="fill:url(#bfa125eb-3859-436e-b673-157c8f5e610a)"
       x="592.72644"
       y="180.96835"
       width="90.464172"
       height="74.303581"
       fill="url(#bfa125eb-3859-436e-b673-157c8f5e610a)"
       id="rect1018" />
  </g>
  <rect
     x="593.7804"
     y="326.79562"
     width="88.180603"
     height="71.668701"
     fill="#ffffff"
     id="rect1022" />
  <rect
     x="593.7804"
     y="326.79562"
     width="88.180603"
     height="15.98493"
     fill="#5290a1"
     id="rect1024"
     style="fill:#02549a;fill-opacity:1" />
  <rect
     x="600.8067"
     y="348.57727"
     width="74.127922"
     height="9.3099003"
     fill="#f5f5f5"
     id="rect1026" />
  <rect
     x="600.8067"
     y="364.91351"
     width="54.10284"
     height="3.16185"
     fill="#e0e0e0"
     id="rect1028" />
  <rect
     x="600.8067"
     y="370.35895"
     width="35.13171"
     height="3.16185"
     fill="#e0e0e0"
     id="rect1030" />
  <rect
     x="600.8067"
     y="375.80435"
     width="46.373859"
     height="3.16185"
     fill="#e0e0e0"
     id="rect1032" />
  <rect
     x="600.8067"
     y="381.24979"
     width="54.10284"
     height="3.16185"
     fill="#e0e0e0"
     id="rect1034" />
  <rect
     x="600.8067"
     y="386.69519"
     width="18.092831"
     height="3.16185"
     fill="#e0e0e0"
     id="rect1036" />
  <rect
     x="604.6712"
     y="351.73914"
     width="21.079029"
     height="2.81054"
     fill="#69f0ae"
     id="rect1038"
     style="fill:#02549a;fill-opacity:1" />
  <circle
     cx="469.37317"
     cy="510.49393"
     r="12.21417"
     fill="#535461"
     opacity="0.1"
     id="circle1040"
     style="opacity:1;fill:#ebecf0;fill-opacity:1" />
  <circle
     cx="492.05661"
     cy="471.2341"
     r="12.21417"
     fill="#535461"
     opacity="0.1"
     id="circle1042"
     style="opacity:1;fill:#ebecf0;fill-opacity:1" />
</svg>
