<?xml version="1.0" encoding="UTF-8" standalone="no"?>
<svg
   xmlns:dc="http://purl.org/dc/elements/1.1/"
   xmlns:cc="http://creativecommons.org/ns#"
   xmlns:rdf="http://www.w3.org/1999/02/22-rdf-syntax-ns#"
   xmlns:svg="http://www.w3.org/2000/svg"
   xmlns="http://www.w3.org/2000/svg"
   xmlns:sodipodi="http://sodipodi.sourceforge.net/DTD/sodipodi-0.dtd"
   xmlns:inkscape="http://www.inkscape.org/namespaces/inkscape"
   inkscape:version="1.0 (4035a4f, 2020-05-01)"
   sodipodi:docname="undraw_Done_checking_re_6vyx.svg"
   version="1.1"
   viewBox="0 0 468.00001 456"
   height="456"
   width="468"
   data-name="Layer 1"
   id="b6508004-6c42-4ebe-8fca-29884660373a">
  <metadata
     id="metadata300">
    <rdf:RDF>
      <cc:Work
         rdf:about="">
        <dc:format>image/svg+xml</dc:format>
        <dc:type
           rdf:resource="http://purl.org/dc/dcmitype/StillImage" />
      </cc:Work>
    </rdf:RDF>
  </metadata>
  <defs
     id="defs298" />
  <sodipodi:namedview
     inkscape:current-layer="b6508004-6c42-4ebe-8fca-29884660373a"
     inkscape:window-maximized="0"
     inkscape:window-y="23"
     inkscape:window-x="0"
     inkscape:cy="237.45887"
     inkscape:cx="270.66069"
     inkscape:zoom="0.88225806"
     showgrid="false"
     id="namedview296"
     inkscape:window-height="755"
     inkscape:window-width="1280"
     inkscape:pageshadow="2"
     inkscape:pageopacity="0"
     guidetolerance="10"
     gridtolerance="10"
     objecttolerance="10"
     borderopacity="1"
     bordercolor="#666666"
     pagecolor="#ffffff" />
  <path
     id="path253"
     fill="#3f3d56"
     d="M 138,354 H 17 A 17.01917,17.01917 0 0 1 0,337 V 155.16846 a 17.01916,17.01916 0 0 1 17,-17 h 121 a 17.01916,17.01916 0 0 1 17,17 V 337 a 17.01917,17.01917 0 0 1 -17,17 z M 17,140.16846 a 15.017,15.017 0 0 0 -15,15 V 337 a 15.017,15.017 0 0 0 15,15 h 121 a 15.017,15.017 0 0 0 15,-15 V 155.16846 a 15.017,15.017 0 0 0 -15,-15 z" />
  <path
     id="path255"
     fill="#5290a1"
     d="m 119.49996,225.58447 h -84 a 8.50951,8.50951 0 0 1 -8.5,-8.5 v -40 a 8.50951,8.50951 0 0 1 8.5,-8.5 h 84 a 8.50981,8.50981 0 0 1 8.5,8.5 v 40 a 8.50981,8.50981 0 0 1 -8.5,8.5 z" />
  <path
     id="path257"
     fill="#cccccc"
     d="m 113.50008,263.08434 h -72 a 8,8 0 1 1 0,-16 h 72 a 8,8 0 0 1 0,16 z" />
  <path
     id="path259"
     fill="#cccccc"
     d="m 113.50008,293.08434 h -72 a 8,8 0 1 1 0,-16 h 72 a 8,8 0 0 1 0,16 z" />
  <path
     id="path261"
     fill="#cccccc"
     d="m 113.50008,323.08434 h -72 a 8,8 0 1 1 0,-16 h 72 a 8,8 0 0 1 0,16 z" />
  <path
     id="path263"
     fill="#3f3d56"
     d="M 433,456 H 312 A 17.01917,17.01917 0 0 1 295,439 V 257.16846 a 17.01916,17.01916 0 0 1 17,-17 h 121 a 17.01916,17.01916 0 0 1 17,17 V 439 a 17.01917,17.01917 0 0 1 -17,17 z M 312,242.16846 a 15.017,15.017 0 0 0 -15,15 V 439 a 15.017,15.017 0 0 0 15,15 h 121 a 15.017,15.017 0 0 0 15,-15 V 257.16846 a 15.017,15.017 0 0 0 -15,-15 z" />
  <path
     id="path265"
     fill="#cccccc"
     d="m 408.50008,285.08434 h -72 a 8,8 0 1 1 0,-16 h 72 a 8,8 0 0 1 0,16 z" />
  <path
     id="path267"
     fill="#cccccc"
     d="m 408.50008,315.08434 h -72 a 8,8 0 1 1 0,-16 h 72 a 8,8 0 0 1 0,16 z" />
  <path
     id="path269"
     fill="#e6e6e6"
     d="m 414.49996,391.584 h -84 a 8.51013,8.51013 0 0 1 -8.5,-8.5 v -40 a 8.51014,8.51014 0 0 1 8.5,-8.5 h 84 a 8.51013,8.51013 0 0 1 8.5,8.5 v 40 a 8.51012,8.51012 0 0 1 -8.5,8.5 z" />
  <path
     id="path271"
     fill="#cccccc"
     d="m 408.50008,427.08434 h -72 a 8,8 0 1 1 0,-16 h 72 a 8,8 0 0 1 0,16 z" />
  <path
     id="path273"
     fill="#3f3d56"
     d="M 359,167 H 238 A 17.01917,17.01917 0 0 1 221,150 V 37.16846 a 17.01916,17.01916 0 0 1 17,-17 h 121 a 17.01916,17.01916 0 0 1 17,17 V 150 a 17.01917,17.01917 0 0 1 -17,17 z M 238,22.16846 a 15.017,15.017 0 0 0 -15,15 V 150 a 15.017,15.017 0 0 0 15,15 h 121 a 15.017,15.017 0 0 0 15,-15 V 37.16846 a 15.017,15.017 0 0 0 -15,-15 z" />
  <path
     id="path275"
     fill="#cccccc"
     d="m 334.50008,131.58434 h -72 a 8,8 0 1 1 0,-16 h 72 a 8,8 0 0 1 0,16 z" />
  <path
     id="path277"
     fill="#cccccc"
     d="m 334.50008,101.58434 h -72 a 8,8 0 1 1 0,-16 h 72 a 8,8 0 0 1 0,16 z" />
  <path
     id="path279"
     fill="#cccccc"
     d="m 334.50008,71.58434 h -72 a 8,8 0 1 1 0,-16 h 72 a 8,8 0 0 1 0,16 z" />
  <circle
     id="circle281"
     fill="#5290a1"
     r="23"
     cy="143"
     cx="144.99998" />
  <path
     id="path283"
     fill="#ffffff"
     d="m 142.72017,151.774 a 2.38531,2.38531 0 0 1 -1.43527,-0.47675 l -0.0257,-0.0193 -5.40515,-4.13837 a 2.40139,2.40139 0 1 1 2.921,-3.81237 l 3.50105,2.68456 8.27354,-10.7899 a 2.40128,2.40128 0 0 1 3.36684,-0.44444 l -0.0514,0.0698 0.0528,-0.0688 a 2.4041,2.4041 0 0 1 0.44444,3.36687 l -9.73161,12.69147 a 2.40237,2.40237 0 0 1 -1.91051,0.9372 z" />
  <circle
     id="circle285"
     fill="#3f3d56"
     r="23"
     cy="246"
     cx="445" />
  <path
     id="path287"
     fill="#ffffff"
     d="m 442.72017,254.774 a 2.38531,2.38531 0 0 1 -1.43527,-0.47675 l -0.0257,-0.0193 -5.40515,-4.13837 a 2.40139,2.40139 0 1 1 2.921,-3.81237 l 3.50105,2.68456 8.27354,-10.7899 a 2.40128,2.40128 0 0 1 3.36684,-0.44444 l -0.0514,0.0698 0.0528,-0.0688 a 2.4041,2.4041 0 0 1 0.44444,3.36687 l -9.73161,12.69147 a 2.40237,2.40237 0 0 1 -1.91051,0.9372 z" />
  <circle
     id="circle289"
     fill="#3f3d56"
     r="23"
     cy="23"
     cx="372" />
  <path
     id="path291"
     fill="#ffffff"
     d="m 369.72017,31.774 a 2.38531,2.38531 0 0 1 -1.43527,-0.47675 l -0.0257,-0.0193 -5.40515,-4.13837 a 2.40139,2.40139 0 1 1 2.921,-3.81237 l 3.50105,2.68456 8.27354,-10.7899 a 2.40128,2.40128 0 0 1 3.36684,-0.44444 l -0.0514,0.0698 0.0528,-0.0688 a 2.4041,2.4041 0 0 1 0.44444,3.36687 l -9.73161,12.69147 a 2.40237,2.40237 0 0 1 -1.91051,0.9372 z" />
</svg>
