<?xml version="1.0" encoding="UTF-8" standalone="no"?>
<svg
   xmlns:dc="http://purl.org/dc/elements/1.1/"
   xmlns:cc="http://creativecommons.org/ns#"
   xmlns:rdf="http://www.w3.org/1999/02/22-rdf-syntax-ns#"
   xmlns:svg="http://www.w3.org/2000/svg"
   xmlns="http://www.w3.org/2000/svg"
   xmlns:sodipodi="http://sodipodi.sourceforge.net/DTD/sodipodi-0.dtd"
   xmlns:inkscape="http://www.inkscape.org/namespaces/inkscape"
   inkscape:version="1.0 (4035a4f, 2020-05-01)"
   sodipodi:docname="undraw_team_up_ip2x.svg"
   version="1.1"
   viewBox="0 0 802 462.41497"
   height="462.41497"
   width="802"
   data-name="Layer 1"
   id="a91fd4ba-2994-4174-ad77-9b89e961cfb5">
  <metadata
     id="metadata464">
    <rdf:RDF>
      <cc:Work
         rdf:about="">
        <dc:format>image/svg+xml</dc:format>
        <dc:type
           rdf:resource="http://purl.org/dc/dcmitype/StillImage" />
      </cc:Work>
    </rdf:RDF>
  </metadata>
  <defs
     id="defs462" />
  <sodipodi:namedview
     inkscape:current-layer="a91fd4ba-2994-4174-ad77-9b89e961cfb5"
     inkscape:window-maximized="0"
     inkscape:window-y="23"
     inkscape:window-x="-1"
     inkscape:cy="175.41336"
     inkscape:cx="401"
     inkscape:zoom="1.1829202"
     showgrid="false"
     id="namedview460"
     inkscape:window-height="755"
     inkscape:window-width="1280"
     inkscape:pageshadow="2"
     inkscape:pageopacity="0"
     guidetolerance="10"
     gridtolerance="10"
     objecttolerance="10"
     borderopacity="1"
     bordercolor="#666666"
     pagecolor="#ffffff" />
  <circle
     id="circle255"
     fill="#f2f2f2"
     r="6.46689"
     cy="21.98023"
     cx="775.0907" />
  <circle
     id="circle257"
     fill="#f2f2f2"
     r="6.46689"
     cy="21.98023"
     cx="749.31739" />
  <circle
     id="circle259"
     fill="#f2f2f2"
     r="6.46689"
     cy="21.98023"
     cx="723.54409" />
  <circle
     id="circle261"
     fill="#f2f2f2"
     r="6.46689"
     cy="21.98023"
     cx="697.77079" />
  <circle
     id="circle263"
     fill="#f2f2f2"
     r="6.46689"
     cy="48.98023"
     cx="775.0907" />
  <circle
     id="circle265"
     fill="#f2f2f2"
     r="6.46689"
     cy="48.98023"
     cx="749.31739" />
  <circle
     id="circle267"
     fill="#f2f2f2"
     r="6.46689"
     cy="48.98023"
     cx="723.54409" />
  <circle
     id="circle269"
     fill="#f2f2f2"
     r="6.46689"
     cy="48.98023"
     cx="697.77079" />
  <circle
     id="circle271"
     fill="#f2f2f2"
     r="6.46689"
     cy="75.98023"
     cx="775.0907" />
  <circle
     id="circle273"
     fill="#f2f2f2"
     r="6.46689"
     cy="75.98023"
     cx="749.31739" />
  <circle
     id="circle275"
     fill="#f2f2f2"
     r="6.46689"
     cy="75.98023"
     cx="723.54409" />
  <circle
     id="circle277"
     fill="#f2f2f2"
     r="6.46689"
     cy="75.98023"
     cx="697.77079" />
  <circle
     id="circle279"
     fill="#f2f2f2"
     r="6.46689"
     cy="102.98023"
     cx="775.0907" />
  <circle
     id="circle281"
     fill="#f2f2f2"
     r="6.46689"
     cy="102.98023"
     cx="749.31739" />
  <circle
     id="circle283"
     fill="#f2f2f2"
     r="6.46689"
     cy="102.98023"
     cx="723.54409" />
  <circle
     id="circle285"
     fill="#f2f2f2"
     r="6.46689"
     cy="102.98023"
     cx="697.77079" />
  <circle
     id="circle287"
     fill="#f2f2f2"
     r="6.46689"
     cy="129.98023"
     cx="775.0907" />
  <circle
     id="circle289"
     fill="#f2f2f2"
     r="6.46689"
     cy="129.98023"
     cx="749.31739" />
  <circle
     id="circle291"
     fill="#f2f2f2"
     r="6.46689"
     cy="129.98023"
     cx="723.54409" />
  <circle
     id="circle293"
     fill="#f2f2f2"
     r="6.46689"
     cy="129.98023"
     cx="697.77079" />
  <circle
     id="circle295"
     fill="#f2f2f2"
     r="6.46689"
     cy="156.98023"
     cx="775.0907" />
  <circle
     id="circle297"
     fill="#f2f2f2"
     r="6.46689"
     cy="156.98023"
     cx="749.31739" />
  <circle
     id="circle299"
     fill="#f2f2f2"
     r="6.46689"
     cy="156.98023"
     cx="723.54409" />
  <circle
     id="circle301"
     fill="#f2f2f2"
     r="6.46689"
     cy="156.98023"
     cx="697.77079" />
  <path
     id="path303"
     fill="#f2f2f2"
     transform="translate(-199 -218.79252)"
     d="M963.08261,664.75326c4.66847-10.08357,9.33339-20.31665,11.35946-31.24223s1.17568-22.78292-4.627-32.25931-17.22813-15.90241-28.13153-13.76022c-8.95531,1.75944-16.146,8.81268-20.3565,16.90992s-5.89977,17.23013-7.53739,26.20852c-.52917-10.20009-1.0896-20.56435-4.478-30.19975s-10.06044-18.61462-19.5694-22.34312-21.87885-.79648-26.8906,8.1032c-7.06074,12.53817,2.30154,30.12541-5.81734,42.0058-1.39265-11.917-13.85471-21.33234-25.69879-19.41591s-20.7011,14.78128-18.26461,26.52941c1.44978,6.99047,6.21931,12.9363,11.92157,17.232s12.33421,9.27436,18.89475,12.09Z" />
  <path
     id="path305"
     fill="#fff"
     transform="translate(-199 -218.79252)"
     d="M819.28955,617.17978c9.40826,3.28851,18.903,6.61425,27.49227,11.75557,7.698,4.60787,14.553,10.81188,18.8823,18.75691A33.35557,33.35557,0,0,1,869.79,661.55087c.06251,1.01759,1.65458,1.02469,1.59163,0-.55661-9.061-4.97237-17.353-11.087-23.91075-6.70405-7.18985-15.39158-12.10041-24.36109-15.91043-5.31822-2.259-10.7686-4.179-16.2208-6.08469-.96888-.33865-1.3854,1.19843-.42312,1.53478Z" />
  <path
     id="path307"
     fill="#fff"
     transform="translate(-199 -218.79252)"
     d="M873.55713,579.64682a143.38212,143.38212,0,0,1,13.79113,30.61558,145.11719,145.11719,0,0,1,6.361,32.96845,143.30729,143.30729,0,0,1,.15151,18.83686c-.05906,1.02328,1.53277,1.01988,1.59163,0a145.19461,145.19461,0,0,0-2.04032-33.82049,146.92709,146.92709,0,0,0-9.769-32.44023,143.25218,143.25218,0,0,0-8.71162-16.96349.79641.79641,0,0,0-1.37433.80332Z" />
  <path
     id="path309"
     fill="#fff"
     transform="translate(-199 -218.79252)"
     d="M951.45771,588.78939a232.04324,232.04324,0,0,0-17.11647,57.57848q-1.34226,8.36487-2.07792,16.81182c-.089,1.02022,1.50317,1.01425,1.59163,0a231.20893,231.20893,0,0,1,12.73788-58.02528q2.83381-7.89209,6.23921-15.56169c.41206-.92792-.959-1.73863-1.37433-.80333Z" />
  <path
     style="stroke-width:3.10573;fill:#a18a75;fill-opacity:1"
     id="path311"
     fill="#3f3d56"
     d="M 801,462.98479 H 1 a 1,9.6455872 0 0 1 0,-19.29117 h 800 a 1,9.6455872 0 0 1 0,19.29117 z" />
  <path
     id="path313"
     fill="#3f3d56"
     transform="translate(-199 -218.79252)"
     d="M613.26258,409.33537H474.534a7.53,7.53,0,0,1-7.52143-7.52142v-175.5a7.53,7.53,0,0,1,7.52143-7.52143H613.26258A7.53,7.53,0,0,1,620.784,226.314v175.5A7.53,7.53,0,0,1,613.26258,409.33537ZM474.534,220.464a5.85656,5.85656,0,0,0-5.85,5.85v175.5a5.85657,5.85657,0,0,0,5.85,5.85H613.26258a5.85658,5.85658,0,0,0,5.85-5.85v-175.5a5.85657,5.85657,0,0,0-5.85-5.85Z" />
  <path
     id="path315"
     fill="#5290a1"
     transform="translate(-199 -218.79252)"
     d="M532.35815,303.15094h-30.537a3.76489,3.76489,0,0,1-3.76071-3.76071V263.35454a3.7649,3.7649,0,0,1,3.76071-3.76072h30.537a3.7649,3.7649,0,0,1,3.76071,3.76072v36.03569A3.76489,3.76489,0,0,1,532.35815,303.15094Z" />
  <path
     id="path319"
     fill="#ff6584"
     transform="translate(-199 -218.79252)"
     d="M544.05815,370.8438h-30.537a3.7649,3.7649,0,0,1-3.76071-3.76072V331.04739a3.76489,3.76489,0,0,1,3.76071-3.76071h30.537a3.76489,3.76489,0,0,1,3.76071,3.76071v36.03569A3.7649,3.7649,0,0,1,544.05815,370.8438Z" />
  <circle
     id="circle321"
     fill="#f2f2f2"
     r="6.46689"
     cy="11.82028"
     cx="115.93074" />
  <circle
     id="circle323"
     fill="#f2f2f2"
     r="6.46689"
     cy="37.59358"
     cx="115.93074" />
  <circle
     id="circle325"
     fill="#f2f2f2"
     r="6.46689"
     cy="63.36688"
     cx="115.93074" />
  <circle
     id="circle327"
     fill="#f2f2f2"
     r="6.46689"
     cy="89.14018"
     cx="115.93074" />
  <circle
     id="circle329"
     fill="#f2f2f2"
     r="6.46689"
     cy="11.82028"
     cx="142.93074" />
  <circle
     id="circle331"
     fill="#f2f2f2"
     r="6.46689"
     cy="37.59358"
     cx="142.93074" />
  <circle
     id="circle333"
     fill="#f2f2f2"
     r="6.46689"
     cy="63.36688"
     cx="142.93074" />
  <circle
     id="circle335"
     fill="#f2f2f2"
     r="6.46689"
     cy="89.14018"
     cx="142.93074" />
  <circle
     id="circle337"
     fill="#f2f2f2"
     r="6.46689"
     cy="11.82028"
     cx="169.93074" />
  <circle
     id="circle339"
     fill="#f2f2f2"
     r="6.46689"
     cy="37.59358"
     cx="169.93074" />
  <circle
     id="circle341"
     fill="#f2f2f2"
     r="6.46689"
     cy="63.36688"
     cx="169.93074" />
  <circle
     id="circle343"
     fill="#f2f2f2"
     r="6.46689"
     cy="89.14018"
     cx="169.93074" />
  <circle
     id="circle345"
     fill="#f2f2f2"
     r="6.46689"
     cy="11.82028"
     cx="196.93074" />
  <circle
     id="circle347"
     fill="#f2f2f2"
     r="6.46689"
     cy="37.59358"
     cx="196.93074" />
  <circle
     id="circle349"
     fill="#f2f2f2"
     r="6.46689"
     cy="63.36688"
     cx="196.93074" />
  <circle
     id="circle351"
     fill="#f2f2f2"
     r="6.46689"
     cy="89.14018"
     cx="196.93074" />
  <circle
     id="circle353"
     fill="#f2f2f2"
     r="6.46689"
     cy="11.82028"
     cx="223.93074" />
  <circle
     id="circle355"
     fill="#f2f2f2"
     r="6.46689"
     cy="37.59358"
     cx="223.93074" />
  <circle
     id="circle357"
     fill="#f2f2f2"
     r="6.46689"
     cy="63.36688"
     cx="223.93074" />
  <circle
     id="circle359"
     fill="#f2f2f2"
     r="6.46689"
     cy="89.14018"
     cx="223.93074" />
  <circle
     id="circle361"
     fill="#f2f2f2"
     r="6.46689"
     cy="11.82028"
     cx="250.93074" />
  <circle
     id="circle363"
     fill="#f2f2f2"
     r="6.46689"
     cy="37.59358"
     cx="250.93074" />
  <circle
     id="circle365"
     fill="#f2f2f2"
     r="6.46689"
     cy="63.36688"
     cx="250.93074" />
  <circle
     id="circle367"
     fill="#f2f2f2"
     r="6.46689"
     cy="89.14018"
     cx="250.93074" />
  <circle
     id="circle369"
     fill="#2f2e41"
     r="42.01233"
     cy="412.42122"
     cx="181.04478" />
  <rect
     id="rect371"
     fill="#2f2e41"
     transform="translate(-461.09036 11.81391) rotate(-26.60099)"
     height="12.76328"
     width="22.86756"
     y="663.26036"
     x="345.26919" />
  <ellipse
     id="ellipse373"
     fill="#2f2e41"
     transform="translate(-606.98026 370.43508) rotate(-56.60122)"
     ry="10.63605"
     rx="3.98853"
     cy="673.4549"
     cx="343.15309" />
  <rect
     id="rect375"
     fill="#2f2e41"
     transform="translate(-574.9977 511.68758) rotate(-63.39901)"
     height="22.86756"
     width="12.76328"
     y="658.20822"
     x="397.00495" />
  <ellipse
     id="ellipse377"
     fill="#2f2e41"
     transform="translate(-500.85891 121.93016) rotate(-33.39878)"
     ry="3.98853"
     rx="10.63605"
     cy="673.4549"
     cx="416.93647" />
  <circle
     id="circle379"
     fill="#fff"
     r="14.35864"
     cy="402.14476"
     cx="178.10355" />
  <path
     id="path381"
     fill="#3f3d56"
     transform="translate(-199 -218.79252)"
     d="M368.69613,621.28443c5.123-3.902,10.91409,1.88915,7.01211,7.01211C370.58529,632.19852,364.79415,626.40738,368.69613,621.28443Z" />
  <path
     id="path383"
     fill="#ccc"
     transform="translate(-199 -218.79252)"
     d="M413.18665,585.50881c.63178-15.55359-12.77313-28.7276-29.94079-29.42493s-31.59693,11.346-32.22873,26.8996,11.30191,19.08746,28.46957,19.78485S412.55482,601.0624,413.18665,585.50881Z" />
  <ellipse
     id="ellipse385"
     fill="#2f2e41"
     transform="translate(-511.88371 210.94479) rotate(-40.64516)"
     ry="21.00616"
     rx="6.59448"
     cy="637.27424"
     cx="423.72079" />
  <ellipse
     id="ellipse387"
     fill="#2f2e41"
     transform="translate(-565.22861 258.69053) rotate(-49.35484)"
     ry="6.59448"
     rx="21.00616"
     cy="637.27424"
     cx="336.48632" />
  <path
     id="path389"
     fill="#fff"
     transform="translate(-199 -218.79252)"
     d="M391.5835,647.77028a9.57244,9.57244,0,1,1-18.83532,3.42883l-.00336-.01849c-.94177-5.20215,3.08038-7.043,8.28253-7.98474S390.64179,642.56813,391.5835,647.77028Z" />
  <path
     id="path391"
     fill="#3f3d56"
     transform="translate(-199 -218.79252)"
     d="M824.29678,546.11588H768.287a2.501,2.501,0,0,1-2.5,2.5h-54.98a12.85957,12.85957,0,0,0-2.10987,2,12.41031,12.41031,0,0,0-2.90039,8v2a12.50461,12.50461,0,0,0,12.5,12.5h106a12.51087,12.51087,0,0,0,12.5-12.5v-2A12.51734,12.51734,0,0,0,824.29678,546.11588Z" />
  <rect
     id="rect393"
     fill="#3f3d56"
     height="92"
     width="13"
     y="353.82677"
     x="566.29199" />
  <path
     id="path395"
     fill="#3f3d56"
     transform="translate(-199 -218.79252)"
     d="M815.292,664.1626c0,1.40463-19.69947.5433-44,.5433s-44,.86133-44-.5433,19.69947-12.54331,44-12.54331S815.292,662.758,815.292,664.1626Z" />
  <path
     id="path397"
     fill="#5290a1"
     transform="translate(-199 -218.79252)"
     d="M821.84708,548.99588l-2.18018-13.64a6.57446,6.57446,0,0,0-7.52-5.45l-22.48974,3.59-38.52,6.15-12.53028,2H765.787a2.501,2.501,0,0,1,2.5,2.5v1.97a2.501,2.501,0,0,1-2.5,2.5H696.6171a6.33168,6.33168,0,0,0-2.43018,2,6.48662,6.48662,0,0,0-1.23975,4.96l.61963,3.88.75,4.71.81006,5.06a6.56085,6.56085,0,0,0,7.5,5.44l17.87012-2.85,51.54-8.23,44.35986-7.08A6.58714,6.58714,0,0,0,821.84708,548.99588Z" />
  <path
     id="path399"
     fill="#5290a1"
     transform="translate(-199 -218.79252)"
     d="M719.12686,550.61588a6.35633,6.35633,0,0,0-2.52978-2H697.477a6.32109,6.32109,0,0,0-2.54,2,6.46518,6.46518,0,0,0-1.37012,3.99v76.21a6.55961,6.55961,0,0,0,6.5503,6.55h13.83007a6.55951,6.55951,0,0,0,6.54981-6.55v-76.21A6.48364,6.48364,0,0,0,719.12686,550.61588Z" />
  <path
     id="path401"
     fill="#5290a1"
     transform="translate(-199 -218.79252)"
     d="M760.747,420.81589l-.12988-.17-8.58008-10.57a6.31523,6.31523,0,0,0-1.62988-1.43,4.81279,4.81279,0,0,0-1.06006-.54,6.30035,6.30035,0,0,0-1.71-.42005,6.64941,6.64941,0,0,0-1.18018-.02.03156.03156,0,0,0-.02.00995,6.48532,6.48532,0,0,0-3.62012,1.44l-17.60986,14.28-22.62988,18.36-33.77,27.4-2.46,2h42.73l2.46972-2,8.17041-6.63.57959-.46,39.46-32.01.03028-.02a6.45665,6.45665,0,0,0,1.87012-2.45,6.59916,6.59916,0,0,0,.52-1.97A6.501,6.501,0,0,0,760.747,420.81589Z" />
  <path
     id="path403"
     fill="#2f2e41"
     transform="translate(-199 -218.79252)"
     d="M760.6171,420.64591a16.30318,16.30318,0,0,0-3.56006-7.3,16.11778,16.11778,0,0,0-6.6499-4.7c-.4004-.15-.79-.29-1.19-.4a17.14959,17.14959,0,0,0-2.76025-.58.03156.03156,0,0,0-.02.00995,16.3141,16.3141,0,0,0-11.7998,3.26l-30.46,23.28a6.46161,6.46161,0,0,0-2.14991,4.57,6.63325,6.63325,0,0,0,.54981,2.97c.1001.21.21.42.33008.62a5.75613,5.75613,0,0,0,.83984,1.12l4.87988,5.48,11.3501,12.73.31982.36.73047.83a6.54939,6.54939,0,0,0,9.26953.41l26.27-28.22a16.21347,16.21347,0,0,0,3.18994-5.03A16.46589,16.46589,0,0,0,760.6171,420.64591Z" />
  <circle
     id="circle405"
     fill="#5290a1"
     r="50.12206"
     cy="115.52053"
     cx="573.23055" />
  <path
     id="path407"
     fill="#5290a1"
     transform="translate(-199 -218.79252)"
     d="M791.02725,542.09592l-1.37011-8.6-.81006-5.05a6.56327,6.56327,0,0,0-7.51026-5.44l-36.42968,5.81-9.87989,1.58-2,.32v10.93H765.787a2.501,2.501,0,0,1,2.5,2.5v1.97a2.501,2.501,0,0,1-2.5,2.5H662.1171c0,.02.00976.04.00976.06l.62012,3.88,1.56006,9.76a6.56058,6.56058,0,0,0,7.5,5.44l17.87012-2.85,3.88964-.62.75-.12,26.18018-4.18,17.81006-2.85,28.25976-4.51.42041-.07,18.58985-2.96A6.56825,6.56825,0,0,0,791.02725,542.09592Z" />
  <path
     id="path409"
     fill="#2f2e41"
     transform="translate(-199 -218.79252)"
     d="M840.44717,505.31589c0,40.86-4.15039,65.3-68.15039,58.3-.08984-.01-.16992-.02-.25976-.03a190.03023,190.03023,0,0,1-33.73-6.45,100.17439,100.17439,0,0,1-16.64014-6.52c-1.25976-.64-2.46973-1.31-3.66016-2H765.787a2.501,2.501,0,0,0,2.5-2.5v-1.97a2.501,2.501,0,0,0-2.5-2.5H733.02725v-63.16a7.34062,7.34062,0,0,0-7.33008-7.33h1.34961c.23047-.66.46-1.33.71-2,2.43018-6.75,2.19119-12.05978,5.6409-18.66977,4.74023-9.12,4.77-18.29,11-26,4.64013-5.73-9.57058-11.98025-4.35086-16.28024,10.03028-8.28,20.9502-13.4,32.03028-13.4C812.93692,394.80588,840.44717,464.4559,840.44717,505.31589Z" />
  <path
     id="path411"
     fill="#2f2e41"
     transform="translate(-199 -218.79252)"
     d="M773.28362,352.89l.05213-1.873c-3.48454-.09695-6.5566-.31553-8.865-2.002a5.75775,5.75775,0,0,1-2.2302-4.24089,3.29129,3.29129,0,0,1,1.07966-2.7108c1.53237-1.29412,3.99807-.87525,5.79521-.05121l1.54975.71062-2.97192-21.71843-1.85567.25425,2.52789,18.47443a6.61185,6.61185,0,0,0-6.25433.89995,5.12369,5.12369,0,0,0-1.74227,4.207,7.61645,7.61645,0,0,0,2.99707,5.68775C766.33193,352.69515,770.18641,352.80307,773.28362,352.89Z" />
  <rect
     style="stroke-width:1.87293"
     id="rect413"
     fill="#2f2e41"
     height="6.5704308"
     width="10.08777"
     y="99.36174"
     x="547.57251" />
  <rect
     style="stroke-width:1.92873"
     id="rect415"
     fill="#2f2e41"
     height="6.9677181"
     width="10.08777"
     y="98.964447"
     x="579.41437" />
  <path
     id="path417"
     fill="#5290a1"
     transform="translate(-199 -218.79252)"
     d="M802.02725,435.14591l-3.97021-2.76-7.39014-5.13a6.56353,6.56353,0,0,0-9.12012,1.65l-24.08984,34.67-22.42969,32.28-2,2.88v42.91h.17969a6.53116,6.53116,0,0,0,4.08984-2,5.832,5.832,0,0,0,.63038-.77l6.98-10.06,17.25-24.83,17.87988-25.72,1.70019-2.45,21.91993-31.55a5.68322,5.68322,0,0,0,.33007-.52,5.26578,5.26578,0,0,0,.26953-.53A6.5499,6.5499,0,0,0,802.02725,435.14591Z" />
  <path
     id="path419"
     fill="#2f2e41"
     transform="translate(-199 -218.79252)"
     d="M802.09708,421.42587a16.08875,16.08875,0,0,0-2.22022-1.22,16.35889,16.35889,0,0,0-19.98,5.16l-22.75976,30.86a6.52488,6.52488,0,0,0,2.17968,9.04l20.72022,13,.25976.16,1.04.65a6.57314,6.57314,0,0,0,9.01026-2.2l16.06982-31.9.27-.53.01025-.01.98975-1.99A16.36294,16.36294,0,0,0,802.09708,421.42587Z" />
  <path
     id="path421"
     fill="#5290a1"
     transform="translate(-199 -218.79252)"
     d="M662.747,548.61588v75.29a6.5595,6.5595,0,0,0,6.5498,6.55h13.83008a6.55961,6.55961,0,0,0,6.5503-6.55v-75.29Z" />
  <path
     id="path423"
     fill="#3f3d56"
     transform="translate(-199 -218.79252)"
     d="M765.787,539.64591H735.02725v-61.16a9.34032,9.34032,0,0,0-9.33008-9.33H611.62686a9.34209,9.34209,0,0,0-9.33984,9.33v62.8a9.34207,9.34207,0,0,0,9.33984,9.33H765.787c.16015,0,.31006-.01.46-.02.14014-.01.28027-.04.41992-.06a4.5161,4.5161,0,0,0,3.62012-4.42v-1.97A4.50022,4.50022,0,0,0,765.787,539.64591Zm0,8.97H611.62686a7.34268,7.34268,0,0,1-7.33984-7.33v-62.8a7.3427,7.3427,0,0,1,7.33984-7.33H725.69717a7.34062,7.34062,0,0,1,7.33008,7.33v63.16H765.787a2.501,2.501,0,0,1,2.5,2.5v1.97A2.501,2.501,0,0,1,765.787,548.61588Z" />
  <circle
     id="circle425"
     fill="#5290a1"
     r="7.69014"
     cy="291.09438"
     cx="469.65819" />
  <rect
     id="rect427"
     fill="#3f3d56"
     height="9"
     width="2"
     y="321.91339"
     x="533.99698" />
  <ellipse
     id="ellipse429"
     fill="#2f2e41"
     transform="translate(-374.76036 479.3457) rotate(-69.08217)"
     ry="6.76007"
     rx="21.53369"
     cy="476.73934"
     cx="419.23913" />
  <circle
     id="circle431"
     fill="#2f2e41"
     transform="translate(-383.03196 583.42673) rotate(-80.78252)"
     r="43.06735"
     cy="509.26145"
     cx="379.43191" />
  <rect
     id="rect433"
     fill="#2f2e41"
     height="23.44171"
     width="13.08374"
     y="324.26854"
     x="160.80632" />
  <rect
     id="rect435"
     fill="#2f2e41"
     height="23.44171"
     width="13.08374"
     y="324.26854"
     x="186.9738" />
  <ellipse
     id="ellipse437"
     fill="#2f2e41"
     ry="4.08868"
     rx="10.90314"
     cy="347.98283"
     cx="171.70947" />
  <ellipse
     id="ellipse439"
     fill="#2f2e41"
     ry="4.08868"
     rx="10.90314"
     cy="347.43766"
     cx="197.87695" />
  <circle
     id="circle441"
     fill="#fff"
     transform="translate(-213.47444 -207.40012) rotate(-1.68323)"
     r="14.71922"
     cy="498.35823"
     cx="380.52226" />
  <circle
     id="circle443"
     fill="#3f3d56"
     r="4.90643"
     cy="279.56572"
     cx="181.52226" />
  <path
     id="path445"
     fill="#5290a1"
     transform="translate(-199 -218.79252)"
     d="M337.65521,469.21c-3.47748-15.57379,7.63867-31.31043,24.82861-35.14881s33.94423,5.67511,37.42171,21.24884-7.91492,21.31763-25.10486,25.156S341.13268,484.7838,337.65521,469.21Z" />
  <ellipse
     id="ellipse447"
     fill="#2f2e41"
     transform="translate(-451.96302 359.81438) rotate(-64.62574)"
     ry="21.53369"
     rx="6.76007"
     cy="489.27794"
     cx="330.92378" />
  <path
     id="path449"
     fill="#fff"
     transform="translate(-199 -218.79252)"
     d="M358.2774,524.79833c0,4.21515,10.85327,12.53857,22.89656,12.53857s23.33514-11.867,23.33514-16.08209-11.29193.81775-23.33514.81775S358.2774,520.58318,358.2774,524.79833Z" />
  <path
     id="path451"
     fill="#ff6584"
     transform="translate(-199 -218.79252)"
     d="M462.54343,500.03047l-31.70149,6.18814a3.44009,3.44009,0,0,1-2.92006-.77225,3.498,3.498,0,0,1-1.21664-2.82013,82.89387,82.89387,0,0,0-7.376-37.78583,3.49887,3.49887,0,0,1,.067-3.07069,3.44007,3.44007,0,0,1,2.41528-1.81371l31.70149-6.18814a3.48542,3.48542,0,0,1,3.92839,2.20921,135.69249,135.69249,0,0,1,7.91127,40.529A3.48541,3.48541,0,0,1,462.54343,500.03047Z" />
  <path
     id="path455"
     fill="#2f2e41"
     transform="translate(-199 -218.79252)"
     d="M786.6525,299.1247a38.01671,38.01671,0,0,1-28.54472.9922,37.49467,37.49467,0,0,1-24.03187-33.27134l-2.25708,1.2952,9.51588,6.69553a1.50911,1.50911,0,0,0,2.2035-.89645,20.07793,20.07793,0,0,1,9.77987-12.71551,26.20053,26.20053,0,0,1,17.42878-2.89927c12.364,2.00575,23.49492,10.24843,30.73688,20.24348a55.30235,55.30235,0,0,1,8.64194,18.03857,1.50128,1.50128,0,0,0,2.89284-.79752,58.45048,58.45048,0,0,0-21.52744-31.50231c-10.74523-7.97878-25.78831-12.80128-38.4275-6.36048-6.01557,3.06547-10.9114,8.52282-12.41821,15.19552l2.2035-.89645-9.51588-6.69552a1.50928,1.50928,0,0,0-2.25708,1.29521,41.06983,41.06983,0,0,0,11.74991,26.89212,39.92553,39.92553,0,0,0,27.93427,11.68454,40.6256,40.6256,0,0,0,17.40657-3.70711c1.7531-.80294.2304-3.38943-1.51416-2.59041Z" />
  <path
     id="path457"
     fill="#5290a1"
     transform="translate(-199 -218.79252)"
     d="M365.67431,674.9541l-31.70149,6.18814a3.44009,3.44009,0,0,1-2.92006-.77225,3.498,3.498,0,0,1-1.21664-2.82013,82.89387,82.89387,0,0,0-7.376-37.78583,3.49884,3.49884,0,0,1,.067-3.07069,3.44007,3.44007,0,0,1,2.41528-1.81371l31.70149-6.18814a3.48542,3.48542,0,0,1,3.92839,2.20921,135.69249,135.69249,0,0,1,7.91127,40.529A3.48541,3.48541,0,0,1,365.67431,674.9541Z" />
  <path
     id="path466"
     d="m 672.36235,440.9905 c 0,-1.32207 -0.72151,-4.50087 -1.60336,-7.064 -5.19843,-15.10953 -18.22591,-25.79279 -42.10413,-34.52777 -6.55815,-2.39906 -7.61988,-3.03885 -6.76293,-4.07529 1.98197,-2.39709 9.35776,-5.17049 13.77334,-5.17896 8.89962,-0.0171 19.59927,8.00861 21.13306,15.85168 0.78788,4.02885 1.67452,4.0249 3.32171,-0.0148 1.18262,-2.90033 1.48309,-6.50138 1.56899,-18.8039 0.0985,-14.10323 0.2471,-15.48028 2.03129,-18.82072 1.68337,-3.15167 7.74057,-8.65366 9.52691,-8.65366 0.34717,0 3.10931,5.04049 6.13809,11.20109 10.36983,21.0924 14.91062,39.84701 14.94138,61.71169 l 0.0152,10.77841 h -10.98975 -10.98976 z"
     style="fill:none;stroke-width:0.845366" />
  <path
     id="path1305"
     d="m 672.36235,440.9905 c 0,-1.32207 -0.72151,-4.50087 -1.60336,-7.064 -5.19843,-15.10953 -18.22591,-25.79279 -42.10413,-34.52777 -6.55815,-2.39906 -7.61988,-3.03885 -6.76293,-4.07529 1.98197,-2.39709 9.35776,-5.17049 13.77334,-5.17896 8.89962,-0.0171 19.59927,8.00861 21.13306,15.85168 0.78788,4.02885 1.67452,4.0249 3.32171,-0.0148 1.18262,-2.90033 1.48309,-6.50138 1.56899,-18.8039 0.0985,-14.10323 0.2471,-15.48028 2.03129,-18.82072 1.68337,-3.15167 7.74057,-8.65366 9.52691,-8.65366 0.34717,0 3.10931,5.04049 6.13809,11.20109 10.36983,21.0924 14.91062,39.84701 14.94138,61.71169 l 0.0152,10.77841 h -10.98975 -10.98976 z"
     style="fill:#a18a75;fill-opacity:1;stroke-width:0.845366" />
  <path
     id="path1307"
     d="m 696.86145,434.30657 c -0.0311,-17.14334 -3.70676,-36.60358 -9.85974,-52.20132 -3.3466,-8.48362 -9.21237,-20.2359 -10.98468,-22.00821 -0.97743,-0.97744 -0.68444,-1.24418 1.89896,-1.72883 11.38401,-2.13565 23.45651,5.34308 29.96441,18.56249 2.7685,5.62363 5.81213,18.55383 5.99378,25.46332 0.0611,2.32476 0.3667,5.36807 0.67906,6.76293 0.50585,2.25883 0.68648,1.93536 1.65219,-2.95878 2.724,-13.80503 6.40464,-22.27353 12.52408,-28.81571 5.44478,-5.8209 10.98634,-8.38038 18.14448,-8.38038 h 5.70506 l -2.09044,4.72685 c -6.68049,15.10577 -13.56986,40.27242 -16.1203,58.88691 l -1.47679,10.77841 h -18.00678 -18.00678 z"
     style="fill:#a18a75;fill-opacity:1;stroke-width:0.845366" />
  <path
     id="path1309"
     d="m 735.97236,436.84267 c 1.92046,-17.10197 8.25133,-41.71936 14.9221,-58.0242 1.88094,-4.59744 3.58414,-8.52323 3.78488,-8.72397 0.20075,-0.20075 1.82842,0.38916 3.61704,1.3109 12.80959,6.60128 19.5586,22.08267 17.23587,39.53692 -1.10778,8.32448 -2.74444,13.93287 -7.20975,24.70578 l -3.21073,7.74615 h -14.93756 -14.93756 z"
     style="fill:#a18a75;fill-opacity:1;stroke-width:0.845366" />
  <path
     id="path1311"
     d="m 634.06047,439.16742 c -13.18614,-8.81943 -18.8564,-15.94094 -19.7744,-24.83548 -0.50021,-4.84658 0.56817,-9.31297 3.3179,-13.87059 1.10479,-1.83115 2.00629,-2.52813 2.64492,-2.04483 0.53286,0.40326 4.01216,1.80231 7.73177,3.10901 24.67091,8.66689 39.08505,21.89031 42.18324,38.6986 l 0.58434,3.17012 h -15.18407 -15.18406 z"
     style="fill:#a18a75;fill-opacity:1;stroke-width:0.845366" />
  <path
     id="path1313"
     d="m 169.36983,382.44659 c -8.28005,-1.61385 -13.0398,-4.58757 -15.29653,-9.55673 -2.88938,-6.36226 -1.4883,-16.09301 3.21618,-22.33678 l 2.11704,-2.80974 2.09048,1.96437 c 1.76971,1.66296 3.16478,2.00938 9.09196,2.25768 8.27841,0.3468 12.59681,-1.20228 12.14778,-4.3576 -0.1968,-1.38286 -1.28184,-2.17512 -4.27479,-3.12131 -3.44571,-1.08932 -4.01168,-1.58182 -4.01549,-3.49421 -0.005,-2.5725 1.59476,-3.23929 7.81519,-3.25717 l 4.01549,-0.0115 v 4.70509 c 0,6.49143 0.83664,7.66301 6.35403,8.89774 4.31516,0.9657 8.48122,0.68234 14.78011,-1.00528 2.28219,-0.61146 6.02811,8.33623 6.12351,14.6269 0.14154,9.33401 -4.14001,14.5239 -14.12075,17.1165 -5.55195,1.44218 -23.43824,1.66965 -30.04421,0.38209 z"
     style="fill:#ebeded;fill-opacity:1;stroke-width:0.845366" />
  <path
     id="path1315"
     d="m 694.03318,26.567659 c -3.08041,-2.423051 -3.08041,-6.753257 0,-9.176308 1.22508,-0.963648 2.88565,-1.752088 3.69014,-1.752088 2.83538,0 5.91756,3.302333 5.91756,6.340242 0,3.03791 -3.08218,6.340242 -5.91756,6.340242 -0.80449,0 -2.46506,-0.788439 -3.69014,-1.752088 z"
     style="fill:#a18a75;fill-opacity:1;stroke-width:0.845366" />
  <path
     id="path1317"
     d="m 720.61495,27.271004 c -4.25174,-2.211757 -3.99588,-9.131822 0.39943,-10.802916 6.11502,-2.324924 11.45209,4.342104 7.35344,9.185862 -1.92425,2.274075 -5.18318,2.953806 -7.75287,1.617054 z"
     style="fill:#a18a75;fill-opacity:1;stroke-width:0.845366" />
  <path
     id="path1319"
     d="m 745.60048,26.567659 c -3.08041,-2.423051 -3.08041,-6.753257 0,-9.176308 1.22508,-0.963648 2.88565,-1.752088 3.69014,-1.752088 2.83538,0 5.91756,3.302333 5.91756,6.340242 0,3.03791 -3.08218,6.340242 -5.91756,6.340242 -0.80449,0 -2.46506,-0.788439 -3.69014,-1.752088 z"
     style="fill:#a18a75;fill-opacity:1;stroke-width:0.845366" />
  <path
     id="path1321"
     d="m 772.18225,27.271004 c -4.28767,-2.230446 -3.98878,-9.134521 0.46882,-10.829297 4.70601,-1.789222 9.4915,2.342645 8.28425,7.152743 -0.94465,3.763776 -5.17204,5.539406 -8.75307,3.676554 z"
     style="fill:#a18a75;fill-opacity:1;stroke-width:0.845366" />
  <path
     id="path1323"
     d="m 695.45383,81.564 c -2.21168,-0.88167 -3.64807,-3.326608 -3.64807,-6.20953 0,-2.304149 3.48788,-5.611809 5.91756,-5.611809 0.8045,0 2.46506,0.78844 3.69014,1.752088 5.32175,4.186087 0.35081,12.584864 -5.95963,10.069251 z"
     style="fill:#a18a75;fill-opacity:1;stroke-width:0.845366" />
  <path
     id="path1325"
     d="m 720.81971,81.41823 c -4.29132,-2.074678 -4.24599,-8.980543 0.0719,-10.947884 7.03235,-3.204151 12.40137,7.154281 5.54578,10.699445 -2.78595,1.440668 -3.12096,1.455484 -5.61763,0.248439 z"
     style="fill:#a18a75;fill-opacity:1;stroke-width:0.845366" />
  <path
     id="path1327"
     d="m 747.59989,81.814957 c -4.68653,-1.691955 -5.78174,-7.345025 -1.99941,-10.320208 2.80994,-2.210299 4.57034,-2.210299 7.38028,0 3.95838,3.113656 2.57649,9.007578 -2.42209,10.330527 -0.9299,0.246113 -2.26135,0.24147 -2.95878,-0.01032 z"
     style="fill:#a18a75;fill-opacity:1;stroke-width:0.845366" />
  <path
     id="path1329"
     d="m 772.38701,81.41823 c -6.84935,-3.311384 -1.72179,-14.148441 5.20175,-10.993866 4.68458,2.134438 4.63848,8.896012 -0.0753,11.043755 -2.46114,1.121369 -2.70878,1.118959 -5.12645,-0.04989 z"
     style="fill:#a18a75;fill-opacity:1;stroke-width:0.845366" />
  <path
     id="path1331"
     d="m 693.12175,133.80235 c -2.86488,-4.09019 -0.091,-9.95629 4.708,-9.95629 4.91101,0 7.85021,7.19163 4.26518,10.43605 -2.3132,2.09341 -7.35986,1.82358 -8.97318,-0.47976 z"
     style="fill:#a18a75;fill-opacity:1;stroke-width:0.845366" />
  <path
     id="path1333"
     d="m 718.87103,133.39301 c -4.64311,-5.90276 3.57328,-12.79988 8.9012,-7.47196 2.29545,2.29545 2.55853,3.88042 1.10306,6.64558 -1.31596,2.50013 -2.359,3.08638 -5.5183,3.1016 -1.92245,0.009 -3.19777,-0.63756 -4.48596,-2.27522 z"
     style="fill:#a18a75;fill-opacity:1;stroke-width:0.845366" />
  <path
     id="path1335"
     d="m 744.68905,133.80235 c -2.86488,-4.09019 -0.091,-9.95629 4.708,-9.95629 4.91101,0 7.85021,7.19163 4.26518,10.43605 -2.3132,2.09341 -7.35985,1.82358 -8.97318,-0.47976 z"
     style="fill:#a18a75;fill-opacity:1;stroke-width:0.845366" />
  <path
     id="path1337"
     d="m 770.9091,134.35402 c -4.54104,-4.54105 -0.36207,-11.72143 5.90622,-10.14819 4.36134,1.09463 5.73348,6.83884 2.42413,10.14819 -1.71056,1.71056 -6.61979,1.71056 -8.33035,0 z"
     style="fill:#a18a75;fill-opacity:1;stroke-width:0.845366" />
  <path
     id="path1339"
     d="m 112.42166,16.423272 c -2.22505,-1.750223 -3.03471,-5.876454 -1.58045,-8.0544029 0.8478,-1.2697087 4.01626,-2.8739928 5.67612,-2.8739928 2.11537,0 5.51203,3.9070231 5.51203,6.3402417 0,2.561084 -3.43636,6.340242 -5.76513,6.340242 -0.88834,0 -2.61749,-0.788439 -3.84257,-1.752088 z"
     style="fill:#a18a75;fill-opacity:1;stroke-width:0.845366" />
  <path
     id="path1341"
     d="m 140.03798,17.163498 c -2.3754,-1.147667 -3.60423,-4.662441 -2.63299,-7.5309877 0.72907,-2.1532696 3.731,-4.137634 6.25939,-4.137634 2.03536,0 5.41667,3.9578472 5.41667,6.3402417 0,2.539633 -3.45218,6.366546 -5.66779,6.283028 -0.8348,-0.03147 -2.35368,-0.46106 -3.37528,-0.954648 z"
     style="fill:#a18a75;fill-opacity:1;stroke-width:0.845366" />
  <path
     id="path1343"
     d="m 167.08967,17.18205 c -2.4926,-1.229191 -3.8523,-5.218418 -2.66605,-7.8219533 0.91217,-2.0019747 3.94547,-3.8652204 6.29246,-3.8652204 1.98507,0 5.41667,3.9330282 5.41667,6.2081637 0,4.314507 -5.11728,7.414959 -9.04308,5.47901 z"
     style="fill:#a18a75;fill-opacity:1;stroke-width:0.845366" />
  <path
     id="path1345"
     d="m 194.15694,17.188997 c -2.95265,-1.45723 -4.05129,-5.090265 -2.46622,-8.1554502 2.97001,-5.7433651 11.49373,-3.4629338 11.49373,3.0750262 0,3.930958 -5.30608,6.917068 -9.02751,5.080424 z"
     style="fill:#a18a75;fill-opacity:1;stroke-width:0.845366" />
  <path
     id="path1347"
     d="m 221.00389,17.126617 c -6.30901,-3.281947 -2.26754,-12.8528323 4.68996,-11.1066116 4.17378,1.047552 5.82189,7.6486816 2.58116,10.3382486 -1.80623,1.499034 -5.18098,1.855656 -7.27112,0.768363 z"
     style="fill:#a18a75;fill-opacity:1;stroke-width:0.845366" />
  <path
     id="path1349"
     d="m 248.05559,17.126617 c -4.28767,-2.230446 -3.98879,-9.1345207 0.46882,-10.8292973 4.70601,-1.789222 9.4915,2.3426449 8.28424,7.1527433 -0.94465,3.763776 -5.17203,5.539406 -8.75306,3.676554 z"
     style="fill:#a18a75;fill-opacity:1;stroke-width:0.845366" />
  <path
     id="path1351"
     d="m 112.4824,68.038358 c -1.63765,-1.288183 -2.28448,-2.563506 -2.27522,-4.485954 0.0152,-3.159301 0.60148,-4.202342 3.1016,-5.518306 2.76516,-1.455468 4.35013,-1.192387 6.64559,1.103068 5.32791,5.327912 -1.56921,13.544302 -7.47197,8.901192 z"
     style="fill:#a18a75;fill-opacity:1;stroke-width:0.845366" />
  <path
     id="path1353"
     d="m 140.03798,68.749351 c -2.3781,-1.172724 -3.60296,-4.684757 -2.63299,-7.54954 0.72907,-2.153269 3.731,-4.137634 6.25939,-4.137634 1.98507,0 5.41667,3.933029 5.41667,6.208164 0,4.314507 -5.11728,7.414959 -9.04307,5.47901 z"
     style="fill:#a18a75;fill-opacity:1;stroke-width:0.845366" />
  <path
     id="path1355"
     d="m 167.08967,68.749351 c -1.0216,-0.503792 -2.25006,-2.042194 -2.72991,-3.418672 -2.41297,-6.921862 7.45505,-11.375613 10.90825,-4.923241 2.79533,5.223112 -2.84217,10.973364 -8.17834,8.341913 z"
     style="fill:#a18a75;fill-opacity:1;stroke-width:0.845366" />
  <path
     id="path1357"
     d="m 194.15694,68.756298 c -2.95265,-1.45723 -4.05129,-5.090265 -2.46622,-8.15545 2.97001,-5.743365 11.49373,-3.462934 11.49373,3.075026 0,3.930958 -5.30608,6.917068 -9.02751,5.080424 z"
     style="fill:#a18a75;fill-opacity:1;stroke-width:0.845366" />
  <path
     id="path1359"
     d="m 221.20864,68.756298 c -1.01304,-0.49997 -2.26657,-1.934282 -2.78561,-3.18736 -2.76086,-6.665315 6.65292,-11.606792 10.60909,-5.568915 1.45817,2.225443 1.05752,6.419526 -0.75711,7.925532 -1.67532,1.390394 -5.11342,1.794587 -7.06637,0.830743 z"
     style="fill:#a18a75;fill-opacity:1;stroke-width:0.845366" />
  <path
     id="path1361"
     d="m 248.01739,68.662767 c -2.92924,-1.48225 -4.06378,-5.827414 -2.24594,-8.60178 0.76637,-1.16963 2.36768,-2.371128 3.55846,-2.669995 6.82327,-1.712533 10.73251,7.900211 4.51941,11.113133 -2.88707,1.492961 -3.17931,1.500911 -5.83193,0.158642 z"
     style="fill:#a18a75;fill-opacity:1;stroke-width:0.845366" />
  <path
     id="path1405"
     d="m 112.07307,42.220344 c -2.41759,-1.693347 -2.61334,-7.056279 -0.33288,-9.120065 2.21278,-2.002536 6.48944,-1.777324 8.5655,0.451065 4.97076,5.335477 -2.20461,12.891181 -8.23262,8.669 z"
     style="fill:#ebeded;fill-opacity:1;stroke-width:0.845366" />
  <path
     id="path1407"
     d="m 138.9796,42.050352 c -4.07782,-3.302016 -1.52779,-10.349142 3.74487,-10.349142 5.48312,0 8.27918,6.352757 4.40003,9.997028 -2.36532,2.222096 -5.65969,2.364515 -8.1449,0.352114 z"
     style="fill:#ebeded;fill-opacity:1;stroke-width:0.845366" />
  <path
     id="path1409"
     d="m 165.94112,41.977332 c -4.11955,-3.33581 -1.47134,-10.276122 3.92106,-10.276122 2.96732,0 6.27057,3.117286 6.27057,5.917559 0,0.804497 -0.78844,2.46506 -1.75208,3.69014 -2.09819,2.667404 -5.62587,2.946801 -8.43955,0.668423 z"
     style="fill:#ebeded;fill-opacity:1;stroke-width:0.845366" />
  <path
     id="path1411"
     d="m 192.60751,41.834687 c -0.84698,-0.935902 -1.53996,-2.833066 -1.53996,-4.215918 0,-5.688228 6.86935,-8.133896 10.36481,-3.69014 2.2103,2.809939 2.2103,4.57034 0,7.38028 -2.19221,2.786943 -6.54389,3.046213 -8.82485,0.525778 z"
     style="fill:#ebeded;fill-opacity:1;stroke-width:0.845366" />
  <path
     id="path1413"
     d="m 219.30775,41.308909 c -0.96364,-1.22508 -1.75208,-2.885643 -1.75208,-3.69014 0,-0.804497 0.78844,-2.46506 1.75208,-3.69014 2.42306,-3.08041 6.75326,-3.08041 9.17631,0 2.2103,2.809939 2.2103,4.57034 0,7.38028 -2.42305,3.08041 -6.75325,3.08041 -9.17631,0 z"
     style="fill:#ebeded;fill-opacity:1;stroke-width:0.845366" />
  <path
     id="path1415"
     d="m 246.35945,41.308909 c -0.96364,-1.22508 -1.75208,-2.885643 -1.75208,-3.69014 0,-0.804497 0.78844,-2.46506 1.75208,-3.69014 2.42305,-3.08041 6.75326,-3.08041 9.17631,0 2.2103,2.809939 2.2103,4.57034 0,7.38028 -2.42305,3.08041 -6.75326,3.08041 -9.17631,0 z"
     style="fill:#ebeded;fill-opacity:1;stroke-width:0.845366" />
  <path
     id="path1417"
     d="m 246.35945,92.87621 c -0.96364,-1.22508 -1.75208,-2.885643 -1.75208,-3.69014 0,-0.804497 0.78844,-2.46506 1.75208,-3.69014 2.42305,-3.08041 6.75326,-3.08041 9.17631,0 2.2103,2.809939 2.2103,4.57034 0,7.38028 -2.42305,3.08041 -6.75326,3.08041 -9.17631,0 z"
     style="fill:#ebeded;fill-opacity:1;stroke-width:0.845366" />
  <path
     id="path1419"
     d="m 219.30775,92.87621 c -0.96364,-1.22508 -1.75208,-2.885643 -1.75208,-3.69014 0,-0.804497 0.78844,-2.46506 1.75208,-3.69014 2.42306,-3.08041 6.75326,-3.08041 9.17631,0 2.2103,2.809939 2.2103,4.57034 0,7.38028 -2.42305,3.08041 -6.75325,3.08041 -9.17631,0 z"
     style="fill:#ebeded;fill-opacity:1;stroke-width:0.845366" />
  <path
     id="path1421"
     d="m 192.81427,93.624239 c -2.3588,-2.617431 -2.57971,-5.558396 -0.606,-8.067562 2.47109,-3.141481 6.77848,-3.169848 9.22409,-0.06075 2.2103,2.809939 2.2103,4.57034 0,7.38028 -2.09371,2.661722 -6.54529,3.048109 -8.61809,0.748029 z"
     style="fill:#ebeded;fill-opacity:1;stroke-width:0.845366" />
  <path
     id="path1423"
     d="m 165.94112,93.544633 c -4.11955,-3.33581 -1.47134,-10.276122 3.92106,-10.276122 2.96732,0 6.27057,3.117286 6.27057,5.917559 0,0.804497 -0.78844,2.46506 -1.75208,3.69014 -2.09819,2.667404 -5.62587,2.946801 -8.43955,0.668423 z"
     style="fill:#ebeded;fill-opacity:1;stroke-width:0.845366" />
  <path
     id="path1425"
     d="m 139.12477,93.787645 c -2.41759,-1.693347 -2.61334,-7.056279 -0.33288,-9.120065 2.21278,-2.002536 6.48944,-1.777324 8.5655,0.451065 4.97075,5.335477 -2.20462,12.891181 -8.23262,8.669 z"
     style="fill:#ebeded;fill-opacity:1;stroke-width:0.845366" />
  <path
     id="path1427"
     d="m 112.07307,93.787645 c -2.41759,-1.693347 -2.61334,-7.056279 -0.33288,-9.120065 2.12703,-1.924934 6.53123,-1.775543 8.59843,0.291662 5.1515,5.151499 -2.24143,13.04786 -8.26555,8.828403 z"
     style="fill:#ebeded;fill-opacity:1;stroke-width:0.845366" />
  <path
     id="path1429"
     d="m 694.03318,53.619358 c -3.08041,-2.423051 -3.08041,-6.753257 0,-9.176308 1.22508,-0.963648 2.88565,-1.752088 3.69014,-1.752088 2.83538,0 5.91756,3.302333 5.91756,6.340242 0,3.037909 -3.08218,6.340242 -5.91756,6.340242 -0.80449,0 -2.46506,-0.788439 -3.69014,-1.752088 z"
     style="fill:#ebeded;fill-opacity:1;stroke-width:0.845366" />
  <path
     id="path1431"
     d="m 720.81971,54.385083 c -2.58462,-1.27559 -3.94529,-4.897666 -2.88625,-7.683136 1.65829,-4.361638 6.51309,-5.261675 9.93323,-1.841533 1.75655,1.75655 2.06743,2.679538 1.63344,4.84953 -0.29481,1.474044 -1.00305,3.135659 -1.57386,3.692478 -1.5635,1.52518 -5.03475,2.005168 -7.10656,0.982661 z"
     style="fill:#ebeded;fill-opacity:1;stroke-width:0.845366" />
  <path
     id="path1433"
     d="m 745.60048,53.619358 c -3.08041,-2.423051 -3.08041,-6.753257 0,-9.176308 1.22508,-0.963648 2.88565,-1.752088 3.69014,-1.752088 2.83538,0 5.91756,3.302333 5.91756,6.340242 0,3.037909 -3.08218,6.340242 -5.91756,6.340242 -0.80449,0 -2.46506,-0.788439 -3.69014,-1.752088 z"
     style="fill:#ebeded;fill-opacity:1;stroke-width:0.845366" />
  <path
     id="path1435"
     d="m 772.00187,54.113637 c -2.59912,-1.435369 -3.60643,-4.504498 -2.46432,-7.508463 2.39466,-6.298444 11.36975,-4.459822 11.36975,2.329189 0,5.008573 -4.48807,7.61877 -8.90543,5.179274 z"
     style="fill:#ebeded;fill-opacity:1;stroke-width:0.845366" />
  <path
     id="path1437"
     d="m 695.45383,108.6157 c -4.0805,-1.62666 -4.88696,-7.34265 -1.42065,-10.069252 2.90679,-2.286479 5.49344,-2.218407 7.76961,0.20447 4.51515,4.806152 -0.29406,12.278522 -6.34896,9.864782 z"
     style="fill:#ebeded;fill-opacity:1;stroke-width:0.845366" />
  <path
     id="path1439"
     d="m 721.26735,108.45808 c -1.25083,-0.4234 -2.68416,-1.83133 -3.24652,-3.18897 -2.06816,-4.99299 3.0992,-10.026287 8.00063,-7.793048 7.04334,3.209158 2.60073,13.471628 -4.75411,10.982018 z"
     style="fill:#ebeded;fill-opacity:1;stroke-width:0.845366" />
  <path
     id="path1441"
     d="m 747.02113,108.6157 c -4.0805,-1.62666 -4.88696,-7.34265 -1.42065,-10.069252 2.90679,-2.286479 5.49344,-2.218407 7.76961,0.20447 4.51515,4.806152 -0.29406,12.278522 -6.34896,9.864782 z"
     style="fill:#ebeded;fill-opacity:1;stroke-width:0.845366" />
  <path
     id="path1443"
     d="m 772.83465,108.45808 c -1.28315,-0.43434 -2.68754,-1.83949 -3.28846,-3.29022 -2.94116,-7.10061 7.15997,-11.613153 10.93608,-4.88555 2.61791,4.66413 -2.34565,9.97048 -7.64762,8.17577 z"
     style="fill:#ebeded;fill-opacity:1;stroke-width:0.845366" />
  <path
     id="path1445"
     d="m 770.48612,160.50546 c -0.96365,-1.22508 -1.75209,-2.95424 -1.75209,-3.84257 0,-2.32878 3.77916,-5.76513 6.34024,-5.76513 2.56109,0 6.34025,3.43635 6.34025,5.76513 0,0.88833 -0.78844,2.61749 -1.75209,3.84257 -2.42305,3.08041 -6.75326,3.08041 -9.17631,0 z"
     style="fill:#ebeded;fill-opacity:1;stroke-width:0.845366" />
  <path
     id="path1447"
     d="m 744.68905,160.85405 c -1.88454,-2.69055 -1.62414,-5.99061 0.64057,-8.1182 5.5027,-5.16952 12.93442,1.87652 8.56258,8.1182 -0.97606,1.39352 -2.16466,1.87883 -4.60158,1.87883 -2.43691,0 -3.62551,-0.48531 -4.60157,-1.87883 z"
     style="fill:#ebeded;fill-opacity:1;stroke-width:0.845366" />
  <path
     id="path1449"
     d="m 718.91882,160.50546 c -0.96365,-1.22508 -1.75209,-2.95424 -1.75209,-3.84257 0,-2.32878 3.77916,-5.76513 6.34024,-5.76513 2.56109,0 6.34024,3.43635 6.34024,5.76513 0,0.88833 -0.78843,2.61749 -1.75208,3.84257 -2.42305,3.08041 -6.75326,3.08041 -9.17631,0 z"
     style="fill:#ebeded;fill-opacity:1;stroke-width:0.845366" />
  <path
     id="path1451"
     d="m 693.12175,160.85405 c -4.21429,-6.01674 3.68321,-13.41075 8.8284,-8.26556 2.15869,2.15869 2.23639,6.85243 0.14478,8.74532 -2.3132,2.09341 -7.35986,1.82358 -8.97318,-0.47976 z"
     style="fill:#ebeded;fill-opacity:1;stroke-width:0.845366" />
  <path
     id="path1453"
     d="m 408.14718,327.19491 -2.07499,-2.07499 v -34.12837 -34.12838 l 2.1811,-2.04943 2.18109,-2.04943 57.28167,-0.23391 c 61.74452,-0.25215 62.77872,-0.18781 64.9137,4.03806 0.80863,1.60058 1.07074,10.67776 1.08019,37.40742 l 0.0125,35.29402 h -61.75012 -61.75011 z m 66.80371,-30.26025 c 1.28468,-1.11624 2.38985,-3.16384 2.67501,-4.95614 0.40968,-2.57485 0.0872,-3.50036 -2.05544,-5.89834 -2.12264,-2.37565 -3.12753,-2.84428 -6.09906,-2.84428 -2.84301,0 -3.96422,0.47261 -5.58138,2.35268 -2.79934,3.25442 -2.77596,8.34591 0.0513,11.17317 2.76999,2.76999 7.92738,2.85099 11.00958,0.17291 z"
     style="fill:#ebeded;fill-opacity:1;stroke-width:0.845366" />
  <path
     id="path1455"
     d="m 536.25849,326.29246 v -2.97743 l 15.75936,0.23 c 13.62823,0.19889 15.87938,0.42047 16.64695,1.63852 0.64372,1.02153 0.58228,1.7764 -0.2236,2.74744 -0.94011,1.13275 -3.50327,1.33891 -16.64695,1.33891 h -15.53576 z"
     style="fill:#ebeded;fill-opacity:1;stroke-width:0.845366" />
  <path
     style="fill:#ebeded;fill-opacity:1"
     d="m 124.3428,309.99632 -31.701495,6.18814 a 3.44009,3.44009 0 0 1 -2.92006,-0.77225 3.498,3.498 0 0 1 -1.21664,-2.82013 82.89387,82.89387 0 0 0 -7.376,-37.78583 3.49887,3.49887 0 0 1 0.067,-3.07068 3.44007,3.44007 0 0 1 2.41528,-1.81371 l 31.701495,-6.18814 a 3.48542,3.48542 0 0 1 3.92839,2.20921 135.69249,135.69249 0 0 1 7.91127,40.52899 3.48541,3.48541 0 0 1 -2.80924,3.5244 z"
     fill="#ff6584"
     id="path451-2" />
  <path
     style="fill:#ebeded;fill-opacity:1"
     d="m 392.30155,108.85122 h -30.537 a 3.7649,3.7649 0 0 1 -3.76071,-3.76072 V 69.054807 a 3.76489,3.76489 0 0 1 3.76071,-3.76071 h 30.537 a 3.76489,3.76489 0 0 1 3.76071,3.76071 V 105.0905 a 3.7649,3.7649 0 0 1 -3.76071,3.76072 z"
     fill="#ff6584"
     id="path319-4" />
</svg>
