<?xml version="1.0" encoding="UTF-8" standalone="no"?>
<svg
   xmlns:dc="http://purl.org/dc/elements/1.1/"
   xmlns:cc="http://creativecommons.org/ns#"
   xmlns:rdf="http://www.w3.org/1999/02/22-rdf-syntax-ns#"
   xmlns:svg="http://www.w3.org/2000/svg"
   xmlns="http://www.w3.org/2000/svg"
   xmlns:sodipodi="http://sodipodi.sourceforge.net/DTD/sodipodi-0.dtd"
   xmlns:inkscape="http://www.inkscape.org/namespaces/inkscape"
   inkscape:version="1.0 (4035a4f, 2020-05-01)"
   sodipodi:docname="undraw_checking_boxes_2ibd.svg"
   version="1.1"
   viewBox="0 0 1080.5736 489.40804"
   height="489.40802"
   width="1080.5736"
   data-name="Layer 1"
   id="af276b94-b3c8-433b-9b31-66faa65c3372">
  <metadata
     id="metadata157">
    <rdf:RDF>
      <cc:Work
         rdf:about="">
        <dc:format>image/svg+xml</dc:format>
        <dc:type
           rdf:resource="http://purl.org/dc/dcmitype/StillImage" />
      </cc:Work>
    </rdf:RDF>
  </metadata>
  <defs
     id="defs155" />
  <sodipodi:namedview
     inkscape:current-layer="af276b94-b3c8-433b-9b31-66faa65c3372"
     inkscape:window-maximized="0"
     inkscape:window-y="25"
     inkscape:window-x="0"
     inkscape:cy="237.24377"
     inkscape:cx="540.73852"
     inkscape:zoom="0.88150248"
     showgrid="false"
     id="namedview153"
     inkscape:window-height="747"
     inkscape:window-width="1280"
     inkscape:pageshadow="2"
     inkscape:pageopacity="0"
     guidetolerance="10"
     gridtolerance="10"
     objecttolerance="10"
     borderopacity="1"
     bordercolor="#666666"
     pagecolor="#ffffff" />
  <title
     id="title10">checking boxes</title>
  <ellipse
     style="fill:#2f2e41;fill-opacity:1;stroke-width:0.958161"
     id="ellipse26"
     fill="#3f3d56"
     ry="21"
     rx="540.2868"
     cy="468.40802"
     cx="540.2868" />
  <rect
     style="fill:#ebecf0;fill-opacity:1;stroke-width:1.01151"
     transform="matrix(0.99998586,-0.00531786,0,1,0,0)"
     id="rect28"
     fill="#f2f2f2"
     rx="20.892483"
     height="456"
     width="853.2973"
     y="5.0252366"
     x="112.51136" />
  <path
     style="fill:#2f2e41;fill-opacity:1;stroke-width:1.01161"
     id="path30"
     fill="#3f3d56"
     d="m 965.98017,22.578064 v 11.58 h -853.4704 v -11.58 A 20.896722,20.42 0 0 1 133.40649,2.1580641 h 811.67698 a 20.896722,20.42 0 0 1 20.8967,20.4199999 z" />
  <ellipse
     style="stroke-width:1.02751"
     ry="6"
     rx="6.3346152"
     id="circle32"
     fill="#059eb2"
     cy="18.658066"
     cx="135.2088" />
  <ellipse
     style="stroke-width:1.02751"
     ry="6"
     rx="6.3346152"
     id="circle34"
     fill="#059eb2"
     cy="18.658066"
     cx="151.04533" />
  <ellipse
     style="stroke-width:1.02751"
     ry="6"
     rx="6.3346152"
     id="circle36"
     fill="#059eb2"
     cy="18.658066"
     cx="166.88188" />
  <path
     id="path38"
     stroke-width="2.05501"
     stroke-miterlimit="10"
     stroke="#f2f2f2"
     fill="none"
     d="M 286.1838,221.65806" />
  <path
     id="path40"
     stroke-width="2.05501"
     stroke-miterlimit="10"
     stroke="#f2f2f2"
     fill="none"
     d="M 271.40303,220.65806" />
  <rect
     style="stroke-width:1.02751"
     id="rect42"
     fill="#ffffff"
     rx="9.8080959"
     height="78"
     width="101.35384"
     y="87.158066"
     x="246.59244" />
  <rect
     style="stroke-width:1.02751"
     id="rect44"
     fill="#059eb2"
     rx="9.8080959"
     height="78"
     width="101.35384"
     y="87.158066"
     x="364.83859" />
  <rect
     style="stroke-width:1.02751"
     id="rect46"
     fill="#ffffff"
     rx="9.8080959"
     height="78"
     width="101.35384"
     y="87.158066"
     x="483.08478" />
  <rect
     style="stroke-width:1.02751"
     id="rect48"
     fill="#ffffff"
     rx="9.8080959"
     height="78"
     width="101.35384"
     y="87.158066"
     x="601.33087" />
  <rect
     style="stroke-width:1.02751"
     id="rect50"
     fill="#059eb2"
     rx="9.8080959"
     height="78"
     width="101.35384"
     y="87.158066"
     x="719.57703" />
  <rect
     style="stroke-width:1.02751"
     id="rect52"
     fill="#ffffff"
     rx="9.8080959"
     height="78"
     width="101.35384"
     y="218.15807"
     x="246.59244" />
  <rect
     style="stroke-width:1.02751"
     id="rect54"
     fill="#ffffff"
     rx="9.8080959"
     height="78"
     width="101.35384"
     y="218.15807"
     x="364.83859" />
  <rect
     style="stroke-width:1.02751"
     id="rect56"
     fill="#059eb2"
     rx="9.8080959"
     height="78"
     width="101.35384"
     y="218.15807"
     x="483.08478" />
  <rect
     style="stroke-width:1.02751"
     id="rect58"
     fill="#ffffff"
     rx="9.8080959"
     height="78"
     width="101.35384"
     y="218.15807"
     x="601.33087" />
  <rect
     style="stroke-width:1.02751"
     id="rect60"
     fill="#ffffff"
     rx="9.8080959"
     height="78"
     width="101.35384"
     y="218.15807"
     x="719.57703" />
  <rect
     style="stroke-width:1.02751"
     id="rect62"
     fill="#ffffff"
     rx="9.8080959"
     height="78"
     width="101.35384"
     y="349.15805"
     x="246.59244" />
  <rect
     style="stroke-width:1.02751"
     id="rect64"
     fill="#ffffff"
     rx="9.8080959"
     height="78"
     width="101.35384"
     y="349.15805"
     x="364.83859" />
  <rect
     style="stroke-width:1.02751"
     id="rect66"
     fill="#ffffff"
     rx="9.8080959"
     height="78"
     width="101.35384"
     y="349.15805"
     x="483.08478" />
  <rect
     style="stroke-width:1.02751"
     id="rect68"
     opacity="0.3"
     fill="#059eb2"
     rx="9.8080959"
     height="78"
     width="101.35384"
     y="349.15805"
     x="601.33087" />
  <rect
     style="stroke-width:1.02751"
     id="rect70"
     fill="#ffffff"
     rx="9.8080959"
     height="78"
     width="101.35384"
     y="349.15805"
     x="719.57703" />
  <path
     style="fill:#02549a;fill-opacity:1;stroke-width:1.02751"
     id="path72"
     fill="#3acc6c"
     d="m 489.65164,72.798064 -5.3422,-5.09 a 2.8294614,2.68 0 0 0 -4.02248,0 l -33.53122,31.49 -14.17898,-13.54 a 2.808346,2.66 0 0 0 -3.99081,0 l -5.39498,5.05 a 2.8716922,2.72 0 0 0 0,3.82 l 21.52713,20.549996 a 2.8716922,2.72 0 0 0 4.03304,0 l 40.9005,-38.459996 a 2.8294614,2.68 0 0 0 0,-3.82 z" />
  <path
     style="fill:#02549a;fill-opacity:1;stroke-width:1.02751"
     id="path74"
     fill="#3acc6c"
     d="m 848.61316,72.798064 -5.34219,-5.09 a 2.8294614,2.68 0 0 0 -4.02248,0 l -33.53123,31.49 -14.17898,-13.54 a 2.808346,2.66 0 0 0 -3.99081,0 l -5.39498,5.05 a 2.8716922,2.72 0 0 0 0,3.82 l 21.52713,20.549996 a 2.8716922,2.72 0 0 0 4.03304,0 l 40.9005,-38.459996 a 2.8294614,2.68 0 0 0 0,-3.82 z" />
  <path
     style="fill:#02549a;fill-opacity:1;stroke-width:1.02751"
     id="path76"
     fill="#3acc6c"
     d="m 607.89779,202.79806 -5.3422,-5.09 a 2.8294614,2.68 0 0 0 -4.02248,0 l -33.53123,31.49 -14.17898,-13.54 a 2.808346,2.66 0 0 0 -3.9908,0 l -5.39498,5.05 a 2.8716922,2.72 0 0 0 0,3.82 l 21.52713,20.55 a 2.8716922,2.72 0 0 0 4.03304,0 l 40.9005,-38.46 a 2.8294614,2.68 0 0 0 0,-3.82 z" />
  <path
     style="fill:#02549a;fill-opacity:1;stroke-width:1.02751"
     id="path78"
     fill="#3acc6c"
     d="m 725.08816,338.79806 -5.34219,-5.09 a 2.8294614,2.68 0 0 0 -4.02248,0 l -33.53123,31.49 -14.17898,-13.54 a 2.808346,2.66 0 0 0 -3.99081,0 l -5.39498,5 a 2.8716922,2.72 0 0 0 0,3.82 l 21.52714,20.55 a 2.8716922,2.72 0 0 0 4.03304,0 l 40.90049,-38.46 a 2.8294614,2.68 0 0 0 0,-3.77 z" />
</svg>
