<?xml version="1.0" encoding="UTF-8" standalone="no"?>
<svg
   xmlns:dc="http://purl.org/dc/elements/1.1/"
   xmlns:cc="http://creativecommons.org/ns#"
   xmlns:rdf="http://www.w3.org/1999/02/22-rdf-syntax-ns#"
   xmlns:svg="http://www.w3.org/2000/svg"
   xmlns="http://www.w3.org/2000/svg"
   xmlns:sodipodi="http://sodipodi.sourceforge.net/DTD/sodipodi-0.dtd"
   xmlns:inkscape="http://www.inkscape.org/namespaces/inkscape"
   inkscape:version="1.0 (4035a4f, 2020-05-01)"
   sodipodi:docname="get-more-done.svg"
   version="1.1"
   viewBox="0 0 1080.5736 1080.2498"
   height="1080.2498"
   width="1080.5736"
   data-name="Layer 1"
   id="af276b94-b3c8-433b-9b31-66faa65c3372">
  <metadata
     id="metadata157">
    <rdf:RDF>
      <cc:Work
         rdf:about="">
        <dc:format>image/svg+xml</dc:format>
        <dc:type
           rdf:resource="http://purl.org/dc/dcmitype/StillImage" />
        <dc:title>checking boxes</dc:title>
      </cc:Work>
    </rdf:RDF>
  </metadata>
  <defs
     id="defs155" />
  <sodipodi:namedview
     inkscape:current-layer="af276b94-b3c8-433b-9b31-66faa65c3372"
     inkscape:window-maximized="0"
     inkscape:window-y="25"
     inkscape:window-x="0"
     inkscape:cy="553.11318"
     inkscape:cx="725.26762"
     inkscape:zoom="0.38254353"
     showgrid="false"
     id="namedview153"
     inkscape:window-height="747"
     inkscape:window-width="1280"
     inkscape:pageshadow="2"
     inkscape:pageopacity="0"
     guidetolerance="10"
     gridtolerance="10"
     objecttolerance="10"
     borderopacity="1"
     bordercolor="#666666"
     pagecolor="#ffffff"
     inkscape:document-rotation="0"
     fit-margin-top="231"
     fit-margin-bottom="231"
     fit-margin-left="0"
     fit-margin-right="0" />
  <title
     id="title10">checking boxes</title>
  <ellipse
     style="fill:#2f2e41;fill-opacity:1;stroke-width:0.958161"
     id="ellipse26"
     fill="#3f3d56"
     ry="21"
     rx="540.2868"
     cy="828.24976"
     cx="540.2868" />
  <rect
     style="fill:#ebecf0;fill-opacity:1;stroke-width:1.01151"
     transform="matrix(0.99998586,-0.00531786,0,1,0,0)"
     id="rect28"
     fill="#f2f2f2"
     rx="20.892483"
     height="456"
     width="853.2973"
     y="364.86703"
     x="112.51136" />
  <path
     style="fill:#2f2e41;fill-opacity:1;stroke-width:1.01161"
     id="path30"
     fill="#3f3d56"
     d="m 965.98017,382.41984 v 11.58 h -853.4704 v -11.58 a 20.896722,20.42 0 0 1 20.89672,-20.42 h 811.67698 a 20.896722,20.42 0 0 1 20.8967,20.42 z" />
  <ellipse
     style="stroke-width:1.02751"
     ry="6"
     rx="6.3346152"
     id="circle32"
     fill="#059eb2"
     cy="378.49985"
     cx="135.2088" />
  <ellipse
     style="stroke-width:1.02751"
     ry="6"
     rx="6.3346152"
     id="circle34"
     fill="#059eb2"
     cy="378.49985"
     cx="151.04533" />
  <ellipse
     style="stroke-width:1.02751"
     ry="6"
     rx="6.3346152"
     id="circle36"
     fill="#059eb2"
     cy="378.49985"
     cx="166.88188" />
  <path
     id="path38"
     stroke-width="2.05501"
     stroke-miterlimit="10"
     stroke="#f2f2f2"
     fill="none"
     d="M 286.1838,581.49984" />
  <path
     id="path40"
     stroke-width="2.05501"
     stroke-miterlimit="10"
     stroke="#f2f2f2"
     fill="none"
     d="M 271.40303,580.49984" />
  <rect
     style="stroke-width:1.02751"
     id="rect42"
     fill="#ffffff"
     rx="9.8080959"
     height="78"
     width="101.35384"
     y="446.99985"
     x="246.59244" />
  <rect
     style="stroke-width:1.02751"
     id="rect44"
     fill="#059eb2"
     rx="9.8080959"
     height="78"
     width="101.35384"
     y="446.99985"
     x="364.83859" />
  <rect
     style="stroke-width:1.02751"
     id="rect46"
     fill="#ffffff"
     rx="9.8080959"
     height="78"
     width="101.35384"
     y="446.99985"
     x="483.08478" />
  <rect
     style="stroke-width:1.02751"
     id="rect48"
     fill="#ffffff"
     rx="9.8080959"
     height="78"
     width="101.35384"
     y="446.99985"
     x="601.33087" />
  <rect
     style="stroke-width:1.02751"
     id="rect50"
     fill="#059eb2"
     rx="9.8080959"
     height="78"
     width="101.35384"
     y="446.99985"
     x="719.57703" />
  <rect
     style="stroke-width:1.02751"
     id="rect52"
     fill="#ffffff"
     rx="9.8080959"
     height="78"
     width="101.35384"
     y="577.99988"
     x="246.59244" />
  <rect
     style="stroke-width:1.02751"
     id="rect54"
     fill="#ffffff"
     rx="9.8080959"
     height="78"
     width="101.35384"
     y="577.99988"
     x="364.83859" />
  <rect
     style="stroke-width:1.02751"
     id="rect56"
     fill="#059eb2"
     rx="9.8080959"
     height="78"
     width="101.35384"
     y="577.99988"
     x="483.08478" />
  <rect
     style="stroke-width:1.02751"
     id="rect58"
     fill="#ffffff"
     rx="9.8080959"
     height="78"
     width="101.35384"
     y="577.99988"
     x="601.33087" />
  <rect
     style="stroke-width:1.02751"
     id="rect60"
     fill="#ffffff"
     rx="9.8080959"
     height="78"
     width="101.35384"
     y="577.99988"
     x="719.57703" />
  <rect
     style="stroke-width:1.02751"
     id="rect62"
     fill="#ffffff"
     rx="9.8080959"
     height="78"
     width="101.35384"
     y="708.99988"
     x="246.59244" />
  <rect
     style="stroke-width:1.02751"
     id="rect64"
     fill="#ffffff"
     rx="9.8080959"
     height="78"
     width="101.35384"
     y="708.99988"
     x="364.83859" />
  <rect
     style="stroke-width:1.02751"
     id="rect66"
     fill="#ffffff"
     rx="9.8080959"
     height="78"
     width="101.35384"
     y="708.99988"
     x="483.08478" />
  <rect
     style="stroke-width:1.02751"
     id="rect68"
     opacity="0.3"
     fill="#059eb2"
     rx="9.8080959"
     height="78"
     width="101.35384"
     y="708.99988"
     x="601.33087" />
  <rect
     style="stroke-width:1.02751"
     id="rect70"
     fill="#ffffff"
     rx="9.8080959"
     height="78"
     width="101.35384"
     y="708.99988"
     x="719.57703" />
  <path
     style="fill:#02549a;fill-opacity:1;stroke-width:1.02751"
     id="path72"
     fill="#3acc6c"
     d="m 489.65164,432.63984 -5.3422,-5.09 a 2.8294614,2.68 0 0 0 -4.02248,0 l -33.53122,31.49 -14.17898,-13.54 a 2.808346,2.66 0 0 0 -3.99081,0 l -5.39498,5.05 a 2.8716922,2.72 0 0 0 0,3.82 l 21.52713,20.55 a 2.8716922,2.72 0 0 0 4.03304,0 l 40.9005,-38.46 a 2.8294614,2.68 0 0 0 0,-3.82 z" />
  <path
     style="fill:#02549a;fill-opacity:1;stroke-width:1.02751"
     id="path74"
     fill="#3acc6c"
     d="m 848.61316,432.63984 -5.34219,-5.09 a 2.8294614,2.68 0 0 0 -4.02248,0 l -33.53123,31.49 -14.17898,-13.54 a 2.808346,2.66 0 0 0 -3.99081,0 l -5.39498,5.05 a 2.8716922,2.72 0 0 0 0,3.82 l 21.52713,20.55 a 2.8716922,2.72 0 0 0 4.03304,0 l 40.9005,-38.46 a 2.8294614,2.68 0 0 0 0,-3.82 z" />
  <path
     style="fill:#02549a;fill-opacity:1;stroke-width:1.02751"
     id="path76"
     fill="#3acc6c"
     d="m 607.89779,562.63984 -5.3422,-5.09 a 2.8294614,2.68 0 0 0 -4.02248,0 l -33.53123,31.49 -14.17898,-13.54 a 2.808346,2.66 0 0 0 -3.9908,0 l -5.39498,5.05 a 2.8716922,2.72 0 0 0 0,3.82 l 21.52713,20.55 a 2.8716922,2.72 0 0 0 4.03304,0 l 40.9005,-38.46 a 2.8294614,2.68 0 0 0 0,-3.82 z" />
  <path
     style="fill:#02549a;fill-opacity:1;stroke-width:1.02751"
     id="path78"
     fill="#3acc6c"
     d="m 725.08816,698.63984 -5.34219,-5.09 a 2.8294614,2.68 0 0 0 -4.02248,0 l -33.53123,31.49 -14.17898,-13.54 a 2.808346,2.66 0 0 0 -3.99081,0 l -5.39498,5 a 2.8716922,2.72 0 0 0 0,3.82 l 21.52714,20.55 a 2.8716922,2.72 0 0 0 4.03304,0 l 40.90049,-38.46 a 2.8294614,2.68 0 0 0 0,-3.77 z" />
  <rect
     x="246.592"
     y="231"
     width="101.35384"
     height="78"
     rx="9.8080959"
     fill="#ffffff"
     id="rect42-8"
     style="fill:#02549a;fill-opacity:1;stroke-width:1.02751" />
  <rect
     x="364.83813"
     y="231"
     width="101.35384"
     height="78"
     rx="9.8080959"
     fill="#059eb2"
     id="rect44-9"
     style="fill:#d35c78;fill-opacity:1;stroke-width:1.02751" />
  <rect
     x="483.08438"
     y="231"
     width="101.35384"
     height="78"
     rx="9.8080959"
     fill="#ffffff"
     id="rect46-4"
     style="fill:#f7e562;fill-opacity:1;stroke-width:1.02751" />
  <rect
     x="601.33051"
     y="231"
     width="101.35384"
     height="78"
     rx="9.8080959"
     fill="#ffffff"
     id="rect48-7"
     style="fill:#04ab83;fill-opacity:1;stroke-width:1.02751" />
  <rect
     x="719.57666"
     y="231"
     width="101.35384"
     height="78"
     rx="9.8080959"
     fill="#059eb2"
     id="rect50-0"
     style="fill:#a4a4a7;fill-opacity:1;stroke-width:1.02751" />
</svg>
