<?xml version="1.0" encoding="UTF-8" standalone="no"?>
<svg
   xmlns:dc="http://purl.org/dc/elements/1.1/"
   xmlns:cc="http://creativecommons.org/ns#"
   xmlns:rdf="http://www.w3.org/1999/02/22-rdf-syntax-ns#"
   xmlns:svg="http://www.w3.org/2000/svg"
   xmlns="http://www.w3.org/2000/svg"
   xmlns:xlink="http://www.w3.org/1999/xlink"
   xmlns:sodipodi="http://sodipodi.sourceforge.net/DTD/sodipodi-0.dtd"
   xmlns:inkscape="http://www.inkscape.org/namespaces/inkscape"
   inkscape:version="1.0 (4035a4f, 2020-05-01)"
   sodipodi:docname="organize-project.svg"
   version="1.1"
   viewBox="0 0 862.84396 574"
   height="574"
   width="862.84396"
   data-name="Layer 1"
   id="e96d43fc-c2ba-4d44-92c2-c0adf9da4e64">
  <metadata
     id="metadata1047">
    <rdf:RDF>
      <cc:Work
         rdf:about="">
        <dc:format>image/svg+xml</dc:format>
        <dc:type
           rdf:resource="http://purl.org/dc/dcmitype/StillImage" />
      </cc:Work>
    </rdf:RDF>
  </metadata>
  <sodipodi:namedview
     inkscape:current-layer="e96d43fc-c2ba-4d44-92c2-c0adf9da4e64"
     inkscape:window-maximized="0"
     inkscape:window-y="25"
     inkscape:window-x="0"
     inkscape:cy="287"
     inkscape:cx="431.42197"
     inkscape:zoom="0.8251782"
     showgrid="false"
     id="namedview1045"
     inkscape:window-height="747"
     inkscape:window-width="1280"
     inkscape:pageshadow="2"
     inkscape:pageopacity="0"
     guidetolerance="10"
     gridtolerance="10"
     objecttolerance="10"
     borderopacity="1"
     bordercolor="#666666"
     pagecolor="#ffffff" />
  <defs
     id="defs848">
    <linearGradient
       gradientUnits="userSpaceOnUse"
       y2="275.77695"
       x2="491.81417"
       y1="649.08953"
       x1="491.81417"
       id="bfa0f4d2-dcfa-4ef6-86fd-560f9baa573d">
      <stop
         id="stop833"
         stop-opacity="0.25"
         stop-color="gray"
         offset="0" />
      <stop
         id="stop835"
         stop-opacity="0.12"
         stop-color="gray"
         offset="0.53514" />
      <stop
         id="stop837"
         stop-opacity="0.1"
         stop-color="gray"
         offset="1" />
    </linearGradient>
    <linearGradient
       xlink:href="#bfa0f4d2-dcfa-4ef6-86fd-560f9baa573d"
       y2="647.80222"
       x2="743.5555"
       y1="708.81483"
       x1="743.5555"
       id="a8a26417-897b-4824-ba24-124e6df23ee1" />
    <linearGradient
       xlink:href="#bfa0f4d2-dcfa-4ef6-86fd-560f9baa573d"
       y2="385.06088"
       x2="322.8031"
       y1="543.16211"
       x1="322.8031"
       id="ab5b96a4-0813-40c0-b204-ab4c684c1095" />
    <linearGradient
       xlink:href="#bfa0f4d2-dcfa-4ef6-86fd-560f9baa573d"
       y2="29.31582"
       x2="519.12134"
       y1="123.67806"
       x1="519.12134"
       id="abf8dd20-0cff-4ae4-8a34-4657bd98ff8c" />
    <linearGradient
       xlink:href="#bfa0f4d2-dcfa-4ef6-86fd-560f9baa573d"
       y2="51.12139"
       x2="534.55674"
       y1="145.48363"
       x1="534.55674"
       id="be1ebc98-5a27-4b7e-a024-d61eab9032a4" />
    <linearGradient
       xlink:href="#bfa0f4d2-dcfa-4ef6-86fd-560f9baa573d"
       y2="65.39684"
       x2="656.12983"
       y1="119.51835"
       x1="656.12983"
       id="ef1bc669-8f5e-47d2-bcab-fb6965780cb0" />
    <linearGradient
       xlink:href="#bfa0f4d2-dcfa-4ef6-86fd-560f9baa573d"
       y2="18.04051"
       x2="771.5139"
       y1="162.36456"
       x1="771.5139"
       id="fdab1853-eb02-4945-888d-7e18210c292d" />
    <linearGradient
       xlink:href="#bfa0f4d2-dcfa-4ef6-86fd-560f9baa573d"
       y2="202.95569"
       x2="674.91931"
       y1="262.90338"
       x1="674.91931"
       id="abb561b1-6277-47b7-aebb-e0bd47f7b9cd" />
    <linearGradient
       xlink:href="#bfa0f4d2-dcfa-4ef6-86fd-560f9baa573d"
       y2="180.96835"
       x2="637.95851"
       y1="255.27192"
       x1="637.95851"
       id="bfa125eb-3859-436e-b673-157c8f5e610a" />
  </defs>
  <title
     id="title850">Organizing projects</title>
  <path
     id="path852"
     fill="#3f3d56"
     transform="translate(-168.57802 -163)"
     d="M274,668.62224c0,18.88026-11.22431,25.47337-25.06914,25.47337-.32233,0-.64293-.00349-.96178-.0122-.64119-.01394-1.27715-.04181-1.9044-.08712-12.49625-.88338-22.20469-7.81624-22.20469-25.37405,0-18.16937,23.21526-41.09715,24.96633-42.79944l.00349-.00175c.06621-.0662.101-.0993.101-.0993S274,649.74024,274,668.62224Z" />
  <path
     id="path854"
     fill="#f2f2f2"
     transform="translate(-168.57802 -163)"
     d="M248.01612,691.20677l9.17006-12.8116-9.19271,14.21769-.02439,1.47055c-.64119-.01394-1.27715-.04181-1.9044-.08712l.98792-18.889-.007-.14637.01743-.02787.09234-1.78419L237.94,658.89462l9.24324,12.91614.02265.37811.74748-14.27172L240.064,643.189l7.98525,12.22094.7771-29.58709.00349-.101v.0993l-.12894,23.332,7.85283-9.25022L248.66776,651.162l-.20733,12.77851,7.33361-12.26276-7.365,14.14451-.115,7.10362,10.64584-17.07L248.274,675.40526Z" />
  <path
     id="path856"
     fill="url(#bfa0f4d2-dcfa-4ef6-86fd-560f9baa573d)"
     transform="translate(-168.57802 -163)"
     d="M592.51319,559.44847c-6.69828-24.31322-43.88872-42.23288-72.90771-46.85833v-11.679q.80456-.29971,1.60018-.61741a25.80449,25.80449,0,0,0-1.39392-6.844A70.43338,70.43338,0,0,0,550.67,469.04284,79.35794,79.35794,0,0,0,535.00069,346.7025a15.57,15.57,0,0,0-6.96213-28.68268,30.3914,30.3914,0,0,0-47.31236-35.30576,30.38171,30.38171,0,0,1,44.65292,26.82984c0,.26671-.01578.52952-.0226.7946a30.38589,30.38589,0,1,0-58.90437,11.367,15.194,15.194,0,0,0-10.05686,22.25626,79.36055,79.36055,0,0,0-19.353,126.21911,70.44524,70.44524,0,0,0,28.62208,22.68125v19.467c-29.3263,4.18973-67.94606,22.44217-74.69415,47.35455-5.88056,21.70968-12.15778,45.55164-15.281,59.54974,26.7709,18.81079,82.94473,29.85609,118.14907,29.85609,33.44821,0,88.11815-9.9692,114.10088-27.09764C605.12483,606.611,598.64958,581.72218,592.51319,559.44847ZM538.88587,334.86914c0,.27668-.01144.55056-.026.82359a15.19713,15.19713,0,0,0-12.61858-14.11309q.44136-.74742.84172-1.5208A15.19746,15.19746,0,0,1,538.88587,334.86914Z" />
  <path
     style="fill:#059eb2;fill-opacity:1"
     id="path858"
     fill="#5290a1"
     transform="translate(-168.57802 -163)"
     d="M493.7806,643.77286c32.49549,0,85.60824-9.68525,110.85087-26.32582-2.73418-14.94272-9.025-39.12268-14.98658-60.76192-7.59245-27.55885-55.51136-46.66462-84.097-46.66462H478.00176c-28.67418,0-76.66223,19.21632-84.15911,46.89313-5.71305,21.0913-11.81148,44.25416-14.84578,57.85354C405.00526,633.04217,459.579,643.77286,493.7806,643.77286Z" />
  <circle
     style="fill:#2f2e41;fill-opacity:1"
     id="circle860"
     fill="#f55f44"
     r="77.0921"
     cy="252.59476"
     cx="324.68013" />
  <path
     style="fill:#ffccaa"
     id="path862"
     fill="#fda57d"
     d="M303.86624,306.181h40.33461a6.035,6.035,0,0,1,6.035,6.035v41.24161a24.77978,24.77978,0,0,1-24.77978,24.77978H322.611a24.77978,24.77978,0,0,1-24.77978-24.77978V312.216A6.035,6.035,0,0,1,303.86624,306.181Z" />
  <path
     id="path864"
     opacity="0.05"
     transform="translate(-168.57802 -163)"
     d="M495.03245,504.09727a67.98146,67.98146,0,0,0,25.336-4.88195,25.10935,25.10935,0,0,0-25.04537-23.48378H493.1753a25.1215,25.1215,0,0,0-25.01388,22.85987A67.96813,67.96813,0,0,0,495.03245,504.09727Z" />
  <circle
     style="fill:#ffccaa"
     id="circle866"
     fill="#fda57d"
     r="68.20302"
     cy="266.34368"
     cx="324.81674" />
  <circle
     style="fill:#2f2e41;fill-opacity:1"
     id="circle868"
     fill="#f55f44"
     r="14.76232"
     cy="177.14292"
     cx="301.71653" />
  <circle
     style="fill:#2f2e41;fill-opacity:1"
     id="circle870"
     fill="#f55f44"
     r="14.76232"
     cy="177.14292"
     cx="354.20476" />
  <circle
     style="fill:#2f2e41;fill-opacity:1"
     id="circle872"
     fill="#f55f44"
     r="29.52463"
     cy="152.53905"
     cx="326.32039" />
  <path
     style="fill:#2f2e41;fill-opacity:1"
     id="path874"
     fill="#f55f44"
     transform="translate(-168.57802 -163)"
     d="M526.0633,322.10008a14.69253,14.69253,0,0,0-8.23833,2.51185,14.75544,14.75544,0,0,1,13.19614,26.1412,14.754,14.754,0,0,0-4.95781-28.65305Z" />
  <path
     style="fill:#2f2e41;fill-opacity:1"
     id="path876"
     fill="#f55f44"
     transform="translate(-168.57802 -163)"
     d="M499.81918,281.09365a29.40313,29.40313,0,0,0-18.77716,6.73953,29.52238,29.52238,0,0,1,32.63315,48.85092,29.52118,29.52118,0,0,0-13.856-55.59045Z" />
  <path
     style="fill:#2f2e41;fill-opacity:1"
     id="path878"
     fill="#f55f44"
     transform="translate(-168.57802 -163)"
     d="M444.05043,368.02729s8.20128,54.1285,111.5375,24.60386L504.74,348.3442Z" />
  <rect
     style="fill:#059eb2;fill-opacity:1"
     id="rect880"
     fill="#5290a1"
     rx="14.2973"
     height="30.23615"
     width="71.05496"
     y="515.01206"
     x="45.22743" />
  <g
     id="g884"
     opacity="0.7">
    <path
       id="path882"
       fill="url(#a8a26417-897b-4824-ba24-124e6df23ee1)"
       transform="translate(-168.57802 -163)"
       d="M763.71145,658.69733V647.80222H709.23591V698.1921a10.62275,10.62275,0,0,0,10.62273,10.62273h33.23008a10.62275,10.62275,0,0,0,10.62273-10.62273V687.02461a14.16364,14.16364,0,1,0,0-28.32728Zm0,22.87973V664.14489a8.71609,8.71609,0,0,1,0,17.43217Z" />
  </g>
  <path
     id="path886"
     fill="#5290a1"
     transform="translate(-168.57802 -163)"
     d="M761.95876,660.40265a12.932,12.932,0,1,0,12.932,12.932A12.932,12.932,0,0,0,761.95876,660.40265Zm0,20.89019a7.95817,7.95817,0,1,1,7.95816-7.95817A7.95818,7.95818,0,0,1,761.95876,681.29284Z" />
  <path
     style="fill:#059eb2;fill-opacity:1"
     id="path888"
     opacity="0.1"
     transform="translate(-168.57802 -163)"
     d="M761.95876,660.40265a12.932,12.932,0,1,0,12.932,12.932A12.932,12.932,0,0,0,761.95876,660.40265Zm0,20.89019a7.95817,7.95817,0,1,1,7.95816-7.95817A7.95818,7.95818,0,0,1,761.95876,681.29284Z" />
  <path
     style="fill:#059eb2;fill-opacity:1"
     id="path890"
     fill="#5290a1"
     d="M543.6422,487.45495h49.73854a0,0,0,0,1,0,0v45.95716a9.75,9.75,0,0,1-9.75,9.75H553.3922a9.75,9.75,0,0,1-9.75-9.75V487.45495A0,0,0,0,1,543.6422,487.45495Z" />
  <rect
     style="fill:#ebecf0;fill-opacity:1"
     id="rect892"
     fill="#e0e0e0"
     height="21.88496"
     width="645.6062"
     y="543.16211" />
  <g
     id="g896"
     opacity="0.7">
    <rect
       id="rect894"
       fill="url(#ab5b96a4-0813-40c0-b204-ab4c684c1095)"
       rx="14.5"
       height="158.10123"
       width="274.55672"
       y="385.06088"
       x="185.52474" />
  </g>
  <rect
     id="rect898"
     fill="#535461"
     rx="26.83505"
     height="155.18423"
     width="264.60901"
     y="387.97787"
     x="190.49859" />
  <circle
     id="circle900"
     fill="#fff"
     r="8.95294"
     cy="465.56999"
     cx="322.8031" />
  <rect
     id="rect902"
     fill="#e0e0e0"
     height="8.95294"
     width="590.89381"
     y="565.04706"
     x="27.35619" />
  <rect
     id="rect904"
     opacity="0.1"
     height="2.98431"
     width="590.89381"
     y="565.04706"
     x="27.35619" />
  <path
     style="fill:#059eb2;fill-opacity:1"
     id="path906"
     opacity="0.1"
     transform="translate(-168.57802 -163)"
     d="M753.00582,650.455v46.00814a9.699,9.699,0,0,1-9.699,9.699h4.97385a9.699,9.699,0,0,0,9.699-9.699V650.455Z" />
  <path
     id="path908"
     fill="#eee"
     transform="translate(-168.57802 -163)"
     d="M722.03546,613.37321a2.90423,2.90423,0,0,0-2.1965,1.11521c-.65244,1.18276.52985,2.51633,1.60877,3.329,1.99324,1.50147,4.09411,2.97632,5.449,5.072s1.7805,5.02022.29944,7.02867c-1.93388,2.62249-6.5477,3.18662-6.99422,6.4143-.28666,2.07216,1.50475,3.8403,3.31992,4.88008,4.48025,2.5664,10.25592,3.25107,13.50114,7.267,1.34247-2.76054,4.34521-4.35628,7.33829-5.03772s6.10287-.63057,9.13753-1.09285a3.15939,3.15939,0,0,0,2.52119-1.33731c.8483-1.72159-1.56943-3.78639-.735-5.51473.63512-1.31546,2.50084-1.2133,3.86329-1.74011,2.21844-.85777,3.13325-3.71287,2.50361-6.00651s-2.40819-4.08614-4.27841-5.55575c-5.0403-3.96061-11.10094-6.28982-17.2309-7.96517-2.851-.7792-6.19776-2.00112-9.159-2.11925C728.125,611.996,724.86481,612.88918,722.03546,613.37321Z" />
  <rect
     style="fill:#ebecf0;fill-opacity:1;opacity:1"
     id="rect910"
     opacity="0.1"
     fill="#535461"
     height="297.66835"
     width="434.47552"
     x="428.36844" />
  <g
     id="g914"
     opacity="0.5">
    <rect
       id="rect912"
       fill="url(#abf8dd20-0cff-4ae4-8a34-4657bd98ff8c)"
       rx="4.5"
       height="94.36224"
       width="102.27585"
       y="29.31582"
       x="467.98342" />
  </g>
  <rect
     id="rect916"
     fill="#f5f5f5"
     rx="4.5"
     height="92.07386"
     width="99.91657"
     y="30.04743"
     x="469.23182" />
  <rect
     style="fill:#02549a;fill-opacity:1"
     id="rect918"
     fill="#5290a1"
     rx="4.5"
     height="15.16536"
     width="16.85039"
     y="45.21279"
     x="476.93201" />
  <rect
     id="rect920"
     fill="#e0e0e0"
     rx="0.79678"
     height="1.68504"
     width="66.98549"
     y="45.21279"
     x="498.83752" />
  <rect
     id="rect922"
     fill="#e0e0e0"
     rx="0.79678"
     height="1.68504"
     width="66.98549"
     y="50.2679"
     x="498.83752" />
  <rect
     id="rect924"
     fill="#e0e0e0"
     rx="0.79678"
     height="1.68504"
     width="90.57604"
     y="68.61611"
     x="475.24697" />
  <rect
     id="rect926"
     fill="#e0e0e0"
     rx="0.79678"
     height="1.68504"
     width="90.57604"
     y="73.67123"
     x="475.24697" />
  <rect
     id="rect928"
     fill="#e0e0e0"
     rx="0.79678"
     height="1.68504"
     width="90.57604"
     y="80.41139"
     x="475.24697" />
  <rect
     id="rect930"
     fill="#e0e0e0"
     rx="0.79678"
     height="1.68504"
     width="52.23622"
     y="85.46651"
     x="475.24697" />
  <rect
     id="rect932"
     fill="#e0e0e0"
     rx="0.79678"
     height="1.68504"
     width="90.57604"
     y="92.19033"
     x="475.24697" />
  <rect
     id="rect934"
     fill="#e0e0e0"
     rx="0.79678"
     height="1.68504"
     width="90.57604"
     y="97.24545"
     x="475.24697" />
  <rect
     id="rect936"
     fill="#e0e0e0"
     rx="0.79678"
     height="1.68504"
     width="90.57604"
     y="103.98561"
     x="475.24697" />
  <rect
     id="rect938"
     fill="#e0e0e0"
     rx="0.79678"
     height="1.68504"
     width="52.23622"
     y="109.04073"
     x="475.24697" />
  <g
     id="g942"
     opacity="0.5">
    <rect
       id="rect940"
       fill="url(#be1ebc98-5a27-4b7e-a024-d61eab9032a4)"
       rx="4.5"
       height="94.36224"
       width="102.27585"
       y="51.12139"
       x="483.41882" />
  </g>
  <rect
     id="rect944"
     fill="#fff"
     rx="4.5"
     height="92.07386"
     width="99.91657"
     y="51.853"
     x="484.66722" />
  <rect
     style="fill:#02549a;fill-opacity:1"
     id="rect946"
     fill="#5290a1"
     rx="4.5"
     height="15.16536"
     width="16.85039"
     y="67.01835"
     x="492.36741" />
  <rect
     id="rect948"
     fill="#e0e0e0"
     rx="0.79678"
     height="1.68504"
     width="66.98549"
     y="67.01835"
     x="514.27293" />
  <rect
     id="rect950"
     fill="#e0e0e0"
     rx="0.79678"
     height="1.68504"
     width="66.98549"
     y="72.07347"
     x="514.27293" />
  <rect
     id="rect952"
     fill="#e0e0e0"
     rx="0.79678"
     height="1.68504"
     width="90.57604"
     y="90.42168"
     x="490.68237" />
  <rect
     id="rect954"
     fill="#e0e0e0"
     rx="0.79678"
     height="1.68504"
     width="90.57604"
     y="95.4768"
     x="490.68237" />
  <rect
     id="rect956"
     fill="#e0e0e0"
     rx="0.79678"
     height="1.68504"
     width="90.57604"
     y="102.21696"
     x="490.68237" />
  <rect
     id="rect958"
     fill="#e0e0e0"
     rx="0.79678"
     height="1.68504"
     width="52.23622"
     y="107.27207"
     x="490.68237" />
  <rect
     id="rect960"
     fill="#e0e0e0"
     rx="0.79678"
     height="1.68504"
     width="90.57604"
     y="113.9959"
     x="490.68237" />
  <rect
     id="rect962"
     fill="#e0e0e0"
     rx="0.79678"
     height="1.68504"
     width="90.57604"
     y="119.05102"
     x="490.68237" />
  <rect
     id="rect964"
     fill="#e0e0e0"
     rx="0.79678"
     height="1.68504"
     width="90.57604"
     y="125.79118"
     x="490.68237" />
  <rect
     id="rect966"
     fill="#e0e0e0"
     rx="0.79678"
     height="1.68504"
     width="52.23622"
     y="130.8463"
     x="490.68237" />
  <rect
     id="rect968"
     fill="url(#ef1bc669-8f5e-47d2-bcab-fb6965780cb0)"
     height="54.12152"
     width="56.33056"
     y="65.39684"
     x="627.96455" />
  <rect
     id="rect970"
     fill="#f5f5f5"
     height="51.69157"
     width="54.56333"
     y="66.72226"
     x="628.84817" />
  <g
     style="fill:#02549a;fill-opacity:1;opacity:1"
     id="g974"
     opacity="0.6">
    <rect
       style="fill:#02549a;fill-opacity:1"
       id="rect972"
       fill="#5290a1"
       height="2.65085"
       width="19.66047"
       y="97.42794"
       x="646.7414" />
  </g>
  <rect
     id="rect976"
     fill="#bdbdbd"
     height="2.65085"
     width="33.57743"
     y="102.28783"
     x="639.34111" />
  <g
     id="g980"
     opacity="0.5">
    <rect
       id="rect978"
       fill="url(#fdab1853-eb02-4945-888d-7e18210c292d)"
       height="144.32405"
       width="122.83516"
       y="18.04051"
       x="710.09632" />
  </g>
  <rect
     id="rect982"
     fill="#fff"
     height="138.80663"
     width="116.44657"
     y="20.36363"
     x="713.8714" />
  <rect
     id="rect984"
     fill="#e0e0e0"
     height="3.48469"
     width="81.8901"
     y="81.26363"
     x="731.29482" />
  <rect
     id="rect986"
     fill="#e0e0e0"
     height="3.48469"
     width="81.8901"
     y="104.20447"
     x="731.29482" />
  <rect
     id="rect988"
     fill="#e0e0e0"
     height="3.48469"
     width="81.8901"
     y="110.30267"
     x="731.29482" />
  <rect
     id="rect990"
     fill="#e0e0e0"
     height="3.48469"
     width="34.55646"
     y="98.10628"
     x="731.29482" />
  <rect
     style="fill:#02549a;fill-opacity:1;opacity:1"
     id="rect992"
     opacity="0.6"
     fill="#3ad29f"
     height="3.48469"
     width="25.84475"
     y="98.10628"
     x="787.34018" />
  <rect
     style="fill:#02549a;fill-opacity:1"
     id="rect994"
     fill="#5290a1"
     height="3.48469"
     width="25.84475"
     y="124.53181"
     x="760.04348" />
  <g
     id="g998"
     opacity="0.5">
    <rect
       id="rect996"
       fill="url(#abb561b1-6277-47b7-aebb-e0bd47f7b9cd)"
       height="59.94768"
       width="72.98595"
       y="202.95569"
       x="638.42634" />
  </g>
  <rect
     id="rect1000"
     fill="#f2f2f2"
     height="57.82188"
     width="71.14358"
     y="204.08946"
     x="639.27666" />
  <rect
     id="rect1002"
     fill="#5290a1"
     height="12.89655"
     width="71.14358"
     y="204.08946"
     x="639.27666" />
  <rect
     style="fill:#02549a;fill-opacity:1;opacity:1"
     id="rect1004"
     opacity="0.1"
     height="12.89655"
     width="71.14358"
     y="204.08946"
     x="639.27666" />
  <rect
     id="rect1006"
     fill="#e0e0e0"
     height="7.51118"
     width="59.80596"
     y="221.66277"
     x="644.94547" />
  <rect
     id="rect1008"
     fill="#e0e0e0"
     height="2.55097"
     width="43.64985"
     y="234.84276"
     x="644.94547" />
  <rect
     id="rect1010"
     fill="#e0e0e0"
     height="2.55097"
     width="28.34406"
     y="239.23609"
     x="644.94547" />
  <rect
     id="rect1012"
     fill="#e0e0e0"
     height="2.55097"
     width="37.41416"
     y="243.62942"
     x="644.94547" />
  <rect
     id="rect1014"
     fill="#e0e0e0"
     height="2.55097"
     width="43.64985"
     y="248.02275"
     x="644.94547" />
  <rect
     id="rect1016"
     fill="#e0e0e0"
     height="2.55097"
     width="14.59719"
     y="252.41608"
     x="644.94547" />
  <g
     id="g1020"
     opacity="0.5">
    <rect
       id="rect1018"
       fill="url(#bfa125eb-3859-436e-b673-157c8f5e610a)"
       height="74.30358"
       width="90.46417"
       y="180.96835"
       x="592.72642" />
  </g>
  <rect
     id="rect1022"
     fill="#fff"
     height="71.6687"
     width="88.1806"
     y="182.37361"
     x="593.78038" />
  <rect
     style="fill:#02549a;fill-opacity:1"
     id="rect1024"
     fill="#5290a1"
     height="15.98493"
     width="88.1806"
     y="182.37361"
     x="593.78038" />
  <rect
     id="rect1026"
     fill="#f5f5f5"
     height="9.3099"
     width="74.12792"
     y="204.15528"
     x="600.80672" />
  <rect
     id="rect1028"
     fill="#e0e0e0"
     height="3.16185"
     width="54.10284"
     y="220.49152"
     x="600.80672" />
  <rect
     id="rect1030"
     fill="#e0e0e0"
     height="3.16185"
     width="35.13171"
     y="225.93694"
     x="600.80672" />
  <rect
     id="rect1032"
     fill="#e0e0e0"
     height="3.16185"
     width="46.37386"
     y="231.38236"
     x="600.80672" />
  <rect
     id="rect1034"
     fill="#e0e0e0"
     height="3.16185"
     width="54.10284"
     y="236.82777"
     x="600.80672" />
  <rect
     id="rect1036"
     fill="#e0e0e0"
     height="3.16185"
     width="18.09283"
     y="242.27319"
     x="600.80672" />
  <rect
     style="fill:#02549a;fill-opacity:1"
     id="rect1038"
     fill="#69f0ae"
     height="2.81054"
     width="21.07903"
     y="207.31713"
     x="604.67121" />
  <circle
     style="fill:#ebecf0;fill-opacity:1;opacity:1"
     id="circle1040"
     opacity="0.1"
     fill="#535461"
     r="12.21417"
     cy="366.07194"
     cx="469.37316" />
  <circle
     style="fill:#ebecf0;fill-opacity:1;opacity:1"
     id="circle1042"
     opacity="0.1"
     fill="#535461"
     r="12.21417"
     cy="326.8121"
     cx="492.05662" />
</svg>
